<svg width="10" height="10" viewBox="0 0 10 10" fill="none" xmlns="http://www.w3.org/2000/svg">
<mask id="mask0_1577_14692" style="mask-type:alpha" maskUnits="userSpaceOnUse" x="0" y="0" width="10" height="10">
<rect width="10" height="10" fill="#D9D9D9"/>
</mask>
<g mask="url(#mask0_1577_14692)">
<path d="M1.66665 8.75C1.43748 8.75 1.2413 8.6684 1.0781 8.50521C0.91491 8.34201 0.833313 8.14583 0.833313 7.91667V2.08333C0.833313 1.85417 0.91491 1.65799 1.0781 1.49479C1.2413 1.3316 1.43748 1.25 1.66665 1.25H8.33331C8.56248 1.25 8.75866 1.3316 8.92185 1.49479C9.08505 1.65799 9.16665 1.85417 9.16665 2.08333V7.91667C9.16665 8.14583 9.08505 8.34201 8.92185 8.50521C8.75866 8.6684 8.56248 8.75 8.33331 8.75H1.66665ZM1.66665 7.91667H8.33331V2.08333H1.66665V7.91667ZM2.49998 7.08333H7.49998V6.25H2.49998V7.08333ZM2.49998 5.41667H4.16665V2.91667H2.49998V5.41667ZM4.99998 5.41667H7.49998V4.58333H4.99998V5.41667ZM4.99998 3.75H7.49998V2.91667H4.99998V3.75Z" fill="white"/>
</g>
</svg>
