<svg width="10" height="10" viewBox="0 0 10 10" fill="none" xmlns="http://www.w3.org/2000/svg">
<mask id="mask0_2164_22873" style="mask-type:alpha" maskUnits="userSpaceOnUse" x="0" y="0" width="10" height="10">
<rect width="10" height="10" fill="#D9D9D9"/>
</mask>
<g mask="url(#mask0_2164_22873)">
<path d="M2.43748 7.12504C2.79165 6.85421 3.18748 6.64067 3.62498 6.48442C4.06248 6.32817 4.52081 6.25004 4.99998 6.25004C5.47915 6.25004 5.93748 6.32817 6.37498 6.48442C6.81248 6.64067 7.20831 6.85421 7.56248 7.12504C7.80554 6.84032 7.99477 6.5174 8.13019 6.15629C8.26561 5.79518 8.33331 5.40976 8.33331 5.00004C8.33331 4.07643 8.00866 3.28997 7.35935 2.64067C6.71005 1.99136 5.92359 1.66671 4.99998 1.66671C4.07637 1.66671 3.28991 1.99136 2.6406 2.64067C1.9913 3.28997 1.66665 4.07643 1.66665 5.00004C1.66665 5.40976 1.73435 5.79518 1.86977 6.15629C2.00519 6.5174 2.19442 6.84032 2.43748 7.12504ZM4.99998 5.41671C4.59026 5.41671 4.24477 5.27608 3.96352 4.99483C3.68227 4.71358 3.54165 4.3681 3.54165 3.95837C3.54165 3.54865 3.68227 3.20317 3.96352 2.92192C4.24477 2.64067 4.59026 2.50004 4.99998 2.50004C5.4097 2.50004 5.75519 2.64067 6.03644 2.92192C6.31769 3.20317 6.45831 3.54865 6.45831 3.95837C6.45831 4.3681 6.31769 4.71358 6.03644 4.99483C5.75519 5.27608 5.4097 5.41671 4.99998 5.41671ZM4.99998 9.16671C4.42359 9.16671 3.88192 9.05733 3.37498 8.83858C2.86804 8.61983 2.42706 8.32296 2.05206 7.94796C1.67706 7.57296 1.38019 7.13199 1.16144 6.62504C0.942688 6.1181 0.833313 5.57643 0.833313 5.00004C0.833313 4.42365 0.942688 3.88199 1.16144 3.37504C1.38019 2.8681 1.67706 2.42712 2.05206 2.05212C2.42706 1.67712 2.86804 1.38025 3.37498 1.1615C3.88192 0.942749 4.42359 0.833374 4.99998 0.833374C5.57637 0.833374 6.11804 0.942749 6.62498 1.1615C7.13192 1.38025 7.5729 1.67712 7.9479 2.05212C8.3229 2.42712 8.61977 2.8681 8.83852 3.37504C9.05727 3.88199 9.16665 4.42365 9.16665 5.00004C9.16665 5.57643 9.05727 6.1181 8.83852 6.62504C8.61977 7.13199 8.3229 7.57296 7.9479 7.94796C7.5729 8.32296 7.13192 8.61983 6.62498 8.83858C6.11804 9.05733 5.57637 9.16671 4.99998 9.16671ZM4.99998 8.33337C5.36804 8.33337 5.71526 8.27956 6.04165 8.17192C6.36804 8.06428 6.66665 7.90976 6.93748 7.70837C6.66665 7.50699 6.36804 7.35247 6.04165 7.24483C5.71526 7.13719 5.36804 7.08337 4.99998 7.08337C4.63192 7.08337 4.2847 7.13719 3.95831 7.24483C3.63192 7.35247 3.33331 7.50699 3.06248 7.70837C3.33331 7.90976 3.63192 8.06428 3.95831 8.17192C4.2847 8.27956 4.63192 8.33337 4.99998 8.33337ZM4.99998 4.58337C5.18054 4.58337 5.32984 4.52435 5.4479 4.40629C5.56595 4.28824 5.62498 4.13893 5.62498 3.95837C5.62498 3.77782 5.56595 3.62851 5.4479 3.51046C5.32984 3.3924 5.18054 3.33337 4.99998 3.33337C4.81942 3.33337 4.67012 3.3924 4.55206 3.51046C4.43401 3.62851 4.37498 3.77782 4.37498 3.95837C4.37498 4.13893 4.43401 4.28824 4.55206 4.40629C4.67012 4.52435 4.81942 4.58337 4.99998 4.58337Z" fill="white"/>
</g>
</svg>
