<svg width="19" height="18" viewBox="0 0 19 18" fill="none" xmlns="http://www.w3.org/2000/svg">
<circle cx="9.5" cy="9" r="9" fill="white"/>
<mask id="mask0_1748_4832" style="mask-type:alpha" maskUnits="userSpaceOnUse" x="2" y="2" width="15" height="14">
<rect x="2.75" y="2.25" width="13.5" height="13.5" fill="#D9D9D9"/>
</mask>
<g mask="url(#mask0_1748_4832)">
<path d="M9.5 12.0938C10.2031 12.0938 10.8008 11.8477 11.293 11.3555C11.7852 10.8633 12.0312 10.2656 12.0312 9.5625C12.0312 8.85938 11.7852 8.26172 11.293 7.76953C10.8008 7.27734 10.2031 7.03125 9.5 7.03125C8.79688 7.03125 8.19922 7.27734 7.70703 7.76953C7.21484 8.26172 6.96875 8.85938 6.96875 9.5625C6.96875 10.2656 7.21484 10.8633 7.70703 11.3555C8.19922 11.8477 8.79688 12.0938 9.5 12.0938ZM9.5 10.9688C9.10625 10.9688 8.77344 10.8328 8.50156 10.5609C8.22969 10.2891 8.09375 9.95625 8.09375 9.5625C8.09375 9.16875 8.22969 8.83594 8.50156 8.56406C8.77344 8.29219 9.10625 8.15625 9.5 8.15625C9.89375 8.15625 10.2266 8.29219 10.4984 8.56406C10.7703 8.83594 10.9062 9.16875 10.9062 9.5625C10.9062 9.95625 10.7703 10.2891 10.4984 10.5609C10.2266 10.8328 9.89375 10.9688 9.5 10.9688ZM5 14.0625C4.69063 14.0625 4.42578 13.9523 4.20547 13.732C3.98516 13.5117 3.875 13.2469 3.875 12.9375V6.1875C3.875 5.87812 3.98516 5.61328 4.20547 5.39297C4.42578 5.17266 4.69063 5.0625 5 5.0625H6.77188L7.8125 3.9375H11.1875L12.2281 5.0625H14C14.3094 5.0625 14.5742 5.17266 14.7945 5.39297C15.0148 5.61328 15.125 5.87812 15.125 6.1875V12.9375C15.125 13.2469 15.0148 13.5117 14.7945 13.732C14.5742 13.9523 14.3094 14.0625 14 14.0625H5ZM5 12.9375H14V6.1875H11.7219L10.6953 5.0625H8.30469L7.27813 6.1875H5V12.9375Z" fill="#203C7C"/>
</g>
</svg>
