<svg width="18" height="19" viewBox="0 0 18 19" fill="none" xmlns="http://www.w3.org/2000/svg">
<path d="M16.4994 9.65969C16.4994 5.49166 13.1417 2.11346 8.99969 2.11346C4.85764 2.11346 1.5 5.49166 1.5 9.65969C1.5 13.4252 4.24261 16.5469 7.82776 17.1128V11.8405H5.92393V9.65906H7.82776V7.997C7.82776 6.10542 8.94781 5.06089 10.6604 5.06089C11.481 5.06089 12.3392 5.20804 12.3392 5.20804V7.06504H11.3942C10.4629 7.06504 10.1722 7.64673 10.1722 8.24351V9.65969H12.2523L11.9198 11.8412H10.1722V17.1135C13.7574 16.5475 16.5 13.4259 16.5 9.65969H16.4994Z" fill="#203C7C"/>
</svg>
