<svg width="18" height="19" viewBox="0 0 18 19" fill="none" xmlns="http://www.w3.org/2000/svg">
<path d="M9 2.41565C7.09833 2.41565 6.86092 2.4244 6.11425 2.45765C5.36875 2.49265 4.86125 2.6099 4.415 2.78315C3.95475 2.96165 3.56392 3.2014 3.17483 3.59048C2.78575 3.97957 2.54542 4.36982 2.3675 4.83065C2.19425 5.2769 2.07642 5.7844 2.042 6.5299C2.007 7.27657 2 7.51398 2 9.41565C2 11.3173 2.00875 11.5547 2.042 12.3014C2.077 13.0463 2.19425 13.5544 2.3675 14.0006C2.54325 14.4678 2.81876 14.891 3.17483 15.2408C3.52441 15.5971 3.94769 15.8727 4.415 16.0481C4.86183 16.2208 5.36933 16.3392 6.11425 16.3736C6.86092 16.4086 7.09833 16.4156 9 16.4156C10.9017 16.4156 11.1391 16.4069 11.8857 16.3736C12.6307 16.3386 13.1388 16.2208 13.585 16.0481C14.0521 15.8722 14.4752 15.5967 14.8252 15.2408C15.1816 14.8913 15.4572 14.468 15.6325 14.0006C15.8052 13.5544 15.9236 13.0463 15.958 12.3014C15.993 11.5547 16 11.3173 16 9.41565C16 7.51398 15.9912 7.27657 15.958 6.5299C15.923 5.78498 15.8052 5.27632 15.6325 4.83065C15.4567 4.36353 15.1812 3.94032 14.8252 3.59048C14.4758 3.23386 14.0525 2.95826 13.585 2.78315C13.1388 2.6099 12.6307 2.49207 11.8857 2.45765C11.1391 2.42265 10.9017 2.41565 9 2.41565ZM9 3.67565C10.8684 3.67565 11.0912 3.68498 11.8292 3.71707C12.5117 3.74915 12.8821 3.86232 13.1282 3.95915C13.4561 4.08573 13.6882 4.2374 13.9344 4.48182C14.1788 4.72682 14.3305 4.95957 14.4571 5.2874C14.5527 5.53357 14.6671 5.90398 14.698 6.58648C14.7312 7.32498 14.7388 7.54665 14.7388 9.41565C14.7388 11.2846 14.7301 11.5069 14.6957 12.2448C14.6601 12.9273 14.5463 13.2977 14.4501 13.5439C14.3362 13.8477 14.1572 14.1228 13.9257 14.3501C13.6994 14.5818 13.4244 14.7604 13.1207 14.8727C12.8757 14.9684 12.4994 15.0827 11.8169 15.1136C11.0737 15.1469 10.855 15.1545 8.9825 15.1545C7.10942 15.1545 6.89067 15.1457 6.14808 15.1113C5.465 15.0757 5.08875 14.962 4.84375 14.8657C4.53978 14.7533 4.26489 14.5741 4.03933 14.3413C3.80517 14.1166 3.62558 13.8412 3.51433 13.5363C3.41808 13.2913 3.30492 12.9151 3.26933 12.2326C3.24308 11.4976 3.23375 11.2706 3.23375 9.4069C3.23375 7.54257 3.24308 7.31507 3.26933 6.57132C3.30492 5.88882 3.41808 5.51315 3.51433 5.26815C3.63683 4.93565 3.79375 4.70815 4.03933 4.46257C4.28375 4.21815 4.51183 4.06065 4.84375 3.93873C5.08875 3.8419 5.45683 3.72815 6.13933 3.69315C6.88308 3.6669 7.10183 3.65815 8.97375 3.65815L9 3.67565ZM9 5.82115C8.52796 5.82115 8.06055 5.91412 7.62444 6.09476C7.18834 6.2754 6.79208 6.54017 6.4583 6.87395C6.12452 7.20773 5.85976 7.60399 5.67911 8.04009C5.49847 8.4762 5.4055 8.94361 5.4055 9.41565C5.4055 9.88769 5.49847 10.3551 5.67911 10.7912C5.85976 11.2273 6.12452 11.6236 6.4583 11.9573C6.79208 12.2911 7.18834 12.5559 7.62444 12.7365C8.06055 12.9172 8.52796 13.0101 9 13.0101C9.95332 13.0101 10.8676 12.6314 11.5417 11.9573C12.2158 11.2832 12.5945 10.369 12.5945 9.41565C12.5945 8.46233 12.2158 7.54805 11.5417 6.87395C10.8676 6.19985 9.95332 5.82115 9 5.82115ZM9 11.749C7.71083 11.749 6.66667 10.7048 6.66667 9.41565C6.66667 8.12648 7.71083 7.08232 9 7.08232C10.2892 7.08232 11.3333 8.12648 11.3333 9.41565C11.3333 10.7048 10.2892 11.749 9 11.749ZM13.5768 5.6794C13.5687 5.89676 13.4767 6.10252 13.32 6.25344C13.1634 6.40435 12.9543 6.48867 12.7368 6.48867C12.5193 6.48867 12.3103 6.40435 12.1536 6.25344C11.997 6.10252 11.9049 5.89676 11.8968 5.6794C11.8968 5.45662 11.9853 5.24296 12.1429 5.08543C12.3004 4.9279 12.5141 4.8394 12.7368 4.8394C12.9596 4.8394 13.1733 4.9279 13.3308 5.08543C13.4883 5.24296 13.5768 5.45662 13.5768 5.6794Z" fill="#203C7C"/>
</svg>
