<svg width="18" height="19" viewBox="0 0 18 19" fill="none" xmlns="http://www.w3.org/2000/svg">
<path d="M13.7514 14.1699H11.7523V11.0373C11.7523 10.2903 11.7371 9.32902 10.7106 9.32902C9.66825 9.32902 9.50906 10.1418 9.50906 10.9822V14.1699H7.50994V7.72815H9.43031V8.60621H9.45619C9.7245 8.09996 10.377 7.56559 11.3518 7.56559C13.3774 7.56559 13.752 8.89871 13.752 10.634L13.7514 14.1699ZM5.25206 6.84671C5.09956 6.84679 4.94853 6.81678 4.80763 6.75842C4.66674 6.70006 4.53873 6.61449 4.43095 6.50659C4.32316 6.3987 4.23771 6.27062 4.17948 6.12966C4.12126 5.98871 4.0914 5.83766 4.09162 5.68515C4.09174 5.45553 4.15994 5.23109 4.2876 5.04023C4.41527 4.84936 4.59666 4.70064 4.80885 4.61287C5.02104 4.5251 5.25449 4.50222 5.47968 4.54713C5.70487 4.59204 5.91168 4.70271 6.07397 4.86516C6.23626 5.02761 6.34674 5.23453 6.39143 5.45976C6.43611 5.685 6.41301 5.91842 6.32503 6.13053C6.23706 6.34263 6.08816 6.52388 5.89717 6.65136C5.70619 6.77884 5.48169 6.84682 5.25206 6.84671ZM6.25444 14.1699H4.24969V7.72815H6.25444V14.1699ZM14.7516 2.66565H3.24619C2.6955 2.66565 2.25 3.10102 2.25 3.63821V15.1931C2.25 15.7308 2.6955 16.1656 3.24619 16.1656H14.7499C15.3 16.1656 15.75 15.7308 15.75 15.1931V3.63821C15.75 3.10102 15.3 2.66565 14.7499 2.66565H14.7516Z" fill="#203C7C"/>
</svg>
