<svg width="18" height="19" viewBox="0 0 18 19" fill="none" xmlns="http://www.w3.org/2000/svg">
<path d="M16.4706 4.86778C15.9091 5.11502 15.3142 5.27822 14.7051 5.35213C15.3464 4.96668 15.8265 4.3622 16.0569 3.65033C15.4625 3.99719 14.8038 4.24968 14.1026 4.3903C13.64 3.89559 13.0269 3.56747 12.3587 3.4569C11.6905 3.34633 11.0044 3.45949 10.4071 3.77882C9.80976 4.09814 9.33459 4.60576 9.05534 5.22284C8.7761 5.83992 8.70842 6.53194 8.86282 7.19143C6.30667 7.07081 4.04114 5.84336 2.52496 3.98782C2.24921 4.45643 2.10539 4.99092 2.10872 5.53463C2.10872 6.60333 2.65245 7.54267 3.47617 8.09452C2.98797 8.07898 2.51057 7.94699 2.08373 7.70954V7.74766C2.08345 8.45787 2.32888 9.14631 2.77839 9.69618C3.22789 10.246 3.85379 10.6235 4.54987 10.7644C4.09883 10.8853 3.62642 10.9034 3.16743 10.8175C3.36508 11.4287 3.74855 11.963 4.26435 12.3458C4.78016 12.7286 5.40258 12.9409 6.04481 12.9531C4.95704 13.8067 3.61395 14.27 2.23122 14.2686C1.98748 14.2686 1.74436 14.2543 1.5 14.2268C2.90976 15.1294 4.54894 15.6086 6.22293 15.6073C11.8814 15.6073 14.9719 10.9225 14.9719 6.86645C14.9719 6.73583 14.9719 6.60396 14.9626 6.47271C15.5663 6.03826 16.087 5.49888 16.5 4.88028L16.4706 4.86778Z" fill="#203C7C"/>
</svg>
