<svg width="18" height="19" viewBox="0 0 18 19" fill="none" xmlns="http://www.w3.org/2000/svg">
<path d="M15.7874 6.4077C15.7073 6.12057 15.5545 5.85896 15.3437 5.64816C15.1329 5.43737 14.8713 5.28452 14.5841 5.20438C13.5064 4.91566 9.16919 4.91566 9.16919 4.91566C9.16919 4.91566 4.8429 4.90989 3.75427 5.20438C3.46714 5.28452 3.20553 5.43737 2.99473 5.64816C2.78394 5.85896 2.63109 6.12057 2.55095 6.4077C2.34667 7.51104 2.24595 8.63105 2.25012 9.75313C2.24674 10.871 2.34745 11.9867 2.55095 13.0859C2.63109 13.373 2.78394 13.6346 2.99473 13.8454C3.20553 14.0562 3.46714 14.2091 3.75427 14.2892C4.8308 14.5785 9.16919 14.5785 9.16919 14.5785C9.16919 14.5785 13.4949 14.5785 14.5841 14.2892C14.8713 14.2091 15.1329 14.0562 15.3437 13.8454C15.5545 13.6346 15.7073 13.373 15.7874 13.0859C15.9867 11.9863 16.0832 10.8706 16.0756 9.75313C16.0839 8.63145 15.9875 7.51144 15.7874 6.4077ZM7.78492 11.8226V7.67729L11.3949 9.75313L7.78492 11.8226Z" fill="#203C7C"/>
</svg>
