<svg width="24" height="23" viewBox="0 0 24 23" fill="none" xmlns="http://www.w3.org/2000/svg">
<mask id="mask0_1_2602" style="mask-type:alpha" maskUnits="userSpaceOnUse" x="0" y="-1" width="24" height="24">
<rect y="-1" width="24" height="24" fill="#D9D9D9"/>
</mask>
<g mask="url(#mask0_1_2602)">
<path d="M0 17V15.425C0 14.7083 0.366667 14.125 1.1 13.675C1.83333 13.225 2.8 13 4 13C4.21667 13 4.425 13.0042 4.625 13.0125C4.825 13.0208 5.01667 13.0417 5.2 13.075C4.96667 13.425 4.79167 13.7917 4.675 14.175C4.55833 14.5583 4.5 14.9583 4.5 15.375V17H0ZM6 17V15.375C6 14.8417 6.14583 14.3542 6.4375 13.9125C6.72917 13.4708 7.14167 13.0833 7.675 12.75C8.20833 12.4167 8.84583 12.1667 9.5875 12C10.3292 11.8333 11.1333 11.75 12 11.75C12.8833 11.75 13.6958 11.8333 14.4375 12C15.1792 12.1667 15.8167 12.4167 16.35 12.75C16.8833 13.0833 17.2917 13.4708 17.575 13.9125C17.8583 14.3542 18 14.8417 18 15.375V17H6ZM19.5 17V15.375C19.5 14.9417 19.4458 14.5333 19.3375 14.15C19.2292 13.7667 19.0667 13.4083 18.85 13.075C19.0333 13.0417 19.2208 13.0208 19.4125 13.0125C19.6042 13.0042 19.8 13 20 13C21.2 13 22.1667 13.2208 22.9 13.6625C23.6333 14.1042 24 14.6917 24 15.425V17H19.5ZM8.125 15H15.9C15.7333 14.6667 15.2708 14.375 14.5125 14.125C13.7542 13.875 12.9167 13.75 12 13.75C11.0833 13.75 10.2458 13.875 9.4875 14.125C8.72917 14.375 8.275 14.6667 8.125 15ZM4 12C3.45 12 2.97917 11.8042 2.5875 11.4125C2.19583 11.0208 2 10.55 2 10C2 9.43333 2.19583 8.95833 2.5875 8.575C2.97917 8.19167 3.45 8 4 8C4.56667 8 5.04167 8.19167 5.425 8.575C5.80833 8.95833 6 9.43333 6 10C6 10.55 5.80833 11.0208 5.425 11.4125C5.04167 11.8042 4.56667 12 4 12ZM20 12C19.45 12 18.9792 11.8042 18.5875 11.4125C18.1958 11.0208 18 10.55 18 10C18 9.43333 18.1958 8.95833 18.5875 8.575C18.9792 8.19167 19.45 8 20 8C20.5667 8 21.0417 8.19167 21.425 8.575C21.8083 8.95833 22 9.43333 22 10C22 10.55 21.8083 11.0208 21.425 11.4125C21.0417 11.8042 20.5667 12 20 12ZM12 11C11.1667 11 10.4583 10.7083 9.875 10.125C9.29167 9.54167 9 8.83333 9 8C9 7.15 9.29167 6.4375 9.875 5.8625C10.4583 5.2875 11.1667 5 12 5C12.85 5 13.5625 5.2875 14.1375 5.8625C14.7125 6.4375 15 7.15 15 8C15 8.83333 14.7125 9.54167 14.1375 10.125C13.5625 10.7083 12.85 11 12 11ZM12 9C12.2833 9 12.5208 8.90417 12.7125 8.7125C12.9042 8.52083 13 8.28333 13 8C13 7.71667 12.9042 7.47917 12.7125 7.2875C12.5208 7.09583 12.2833 7 12 7C11.7167 7 11.4792 7.09583 11.2875 7.2875C11.0958 7.47917 11 7.71667 11 8C11 8.28333 11.0958 8.52083 11.2875 8.7125C11.4792 8.90417 11.7167 9 12 9Z" fill="#203C7C"/>
</g>
</svg>
