<svg width="24" height="23" viewBox="0 0 24 23" fill="none" xmlns="http://www.w3.org/2000/svg">
<mask id="mask0_1_2614" style="mask-type:alpha" maskUnits="userSpaceOnUse" x="0" y="-1" width="24" height="24">
<rect y="-1" width="24" height="24" fill="#D9D9D9"/>
</mask>
<g mask="url(#mask0_1_2614)">
<path d="M12 21C9.68333 20.4167 7.77083 19.0875 6.2625 17.0125C4.75417 14.9375 4 12.6333 4 10.1V4L12 1L20 4V10.1C20 12.6333 19.2458 14.9375 17.7375 17.0125C16.2292 19.0875 14.3167 20.4167 12 21ZM12 18.9C13.7333 18.35 15.1667 17.25 16.3 15.6C17.4333 13.95 18 12.1167 18 10.1V5.375L12 3.125L6 5.375V10.1C6 12.1167 6.56667 13.95 7.7 15.6C8.83333 17.25 10.2667 18.35 12 18.9ZM10 15H14C14.2833 15 14.5208 14.9042 14.7125 14.7125C14.9042 14.5208 15 14.2833 15 14V11C15 10.7167 14.9042 10.4792 14.7125 10.2875C14.5208 10.0958 14.2833 10 14 10V9C14 8.45 13.8042 7.97917 13.4125 7.5875C13.0208 7.19583 12.55 7 12 7C11.45 7 10.9792 7.19583 10.5875 7.5875C10.1958 7.97917 10 8.45 10 9V10C9.71667 10 9.47917 10.0958 9.2875 10.2875C9.09583 10.4792 9 10.7167 9 11V14C9 14.2833 9.09583 14.5208 9.2875 14.7125C9.47917 14.9042 9.71667 15 10 15ZM11 10V9C11 8.71667 11.0958 8.47917 11.2875 8.2875C11.4792 8.09583 11.7167 8 12 8C12.2833 8 12.5208 8.09583 12.7125 8.2875C12.9042 8.47917 13 8.71667 13 9V10H11Z" fill="#203C7C"/>
</g>
</svg>
