<svg width="18" height="12" viewBox="0 0 18 12" fill="none" xmlns="http://www.w3.org/2000/svg">
<g clip-path="url(#clip0_2205_1003)">
<path d="M18 0.583008H0V11.4173H18V0.583008Z" fill="#FF0310"/>
<path d="M9.82073 2.94812H9.83146C8.0454 2.85694 7.97567 4.44454 7.97567 4.44454C7.96495 5.44752 8.93038 5.8337 8.93038 5.8337C8.49057 5.40461 8.52275 5.26516 8.47985 4.95944C8.4423 4.65372 8.66757 4.31045 8.66757 4.31045C8.69975 4.27291 8.71048 4.33191 8.71048 4.33191C8.63003 4.43918 8.4423 4.81463 8.57103 5.24371C8.69975 5.67279 8.98938 5.81224 8.98938 5.81224C8.83384 5.68352 8.81239 5.50116 8.80702 5.39389C8.80702 5.29198 8.86602 4.95944 9.24683 4.78781C9.62764 4.61618 9.62764 4.44454 9.70273 4.18709C9.77782 3.93501 9.61155 3.73119 9.55792 3.64538C9.50428 3.5542 9.47746 3.43084 9.50428 3.26993C9.53646 3.10902 9.81536 2.94812 9.81536 2.94812H9.82073ZM8.96256 4.20855L8.84993 4.40163L8.81775 4.18709L8.58712 4.14955L8.79629 4.053L8.76411 3.83846L8.92502 3.99401L9.1342 3.89746L9.02156 4.09055L9.18247 4.24609L8.95184 4.20855H8.96256Z" fill="white"/>
<path d="M12.2987 5.6032H12.3094C11.8106 4.01559 10.1747 4.47685 10.1747 4.47685C9.15028 4.7933 9.0752 5.76946 9.0752 5.76946C9.37019 5.24384 9.52037 5.22238 9.82073 5.0883C10.1211 4.95421 10.5448 5.04003 10.5448 5.04003C10.5931 5.05612 10.5341 5.0883 10.5341 5.0883C10.4 5.05075 9.95481 5.00784 9.55791 5.26529C9.16101 5.51738 9.1181 5.81774 9.1181 5.81774C9.19856 5.64074 9.38092 5.56029 9.48282 5.52274C9.58473 5.4852 9.94409 5.43156 10.2391 5.71047C10.5394 5.98401 10.7164 5.93037 10.9953 5.91428C11.2796 5.89819 11.4298 5.68365 11.4995 5.60856C11.5746 5.53347 11.6926 5.46374 11.8642 5.44229C12.0359 5.41547 12.2933 5.61392 12.2933 5.61392L12.2987 5.6032ZM10.7325 5.25993L10.5019 5.22775L10.7111 5.1312L10.6735 4.91666L10.8398 5.07221L11.049 4.97566L10.9417 5.16875L11.108 5.32429L10.8773 5.29211L10.7701 5.4852L10.7325 5.27066V5.25993Z" fill="white"/>
<path d="M10.3197 8.66071C11.8054 7.74355 10.8507 6.42948 10.8507 6.42948C10.2178 5.61423 9.19869 5.83413 9.19869 5.83413C9.82622 5.9414 9.89059 6.07013 10.1212 6.2954C10.3465 6.52066 10.384 6.92293 10.384 6.92293C10.384 6.9712 10.3358 6.92829 10.3358 6.92829C10.3358 6.79957 10.2446 6.39194 9.86913 6.1184C9.49369 5.84486 9.17188 5.89313 9.17188 5.89313C9.38105 5.90922 9.51514 6.04867 9.58487 6.12913C9.65459 6.20958 9.8155 6.50994 9.61705 6.85857C9.42396 7.2072 9.53123 7.34665 9.62778 7.59337C9.72968 7.84009 9.99249 7.90982 10.089 7.95273C10.1856 7.99563 10.2929 8.08145 10.3679 8.22627C10.443 8.37108 10.3197 8.66071 10.3197 8.66071ZM10.207 7.15892L10.1749 6.94438L10.3358 7.09993L10.5449 7.00338L10.4377 7.19647L10.5986 7.35201L10.3679 7.31447L10.2607 7.50755L10.2285 7.29301L9.99786 7.25547L10.207 7.15892Z" fill="white"/>
<path d="M6.5869 7.85038H6.57617C7.97069 8.88554 9.0273 7.63584 9.0273 7.63584C9.66556 6.83131 9.12921 5.98923 9.12921 5.98923C9.21503 6.57386 9.10239 6.67577 8.94149 6.94394C8.78058 7.21212 8.38368 7.36766 8.38368 7.36766C8.33541 7.37839 8.36223 7.32475 8.36223 7.32475C8.49631 7.28185 8.88249 7.07803 9.04876 6.65968C9.21503 6.24132 9.06485 5.97314 9.06485 5.97314C9.10776 6.16087 9.01121 6.32714 8.95221 6.40759C8.88785 6.49341 8.6304 6.72404 8.21741 6.65968C7.79906 6.59531 7.69179 6.73477 7.46652 6.89567C7.24661 7.06194 7.25734 7.31403 7.24125 7.41593C7.22516 7.51784 7.17152 7.63584 7.04816 7.74847C6.9248 7.86111 6.59226 7.83965 6.59226 7.83965L6.5869 7.85038ZM8.07796 7.29257L8.28714 7.19603L8.17987 7.38912L8.34077 7.54466L8.11014 7.50711L8.00287 7.7002L7.97069 7.48566L7.74006 7.44811L7.94923 7.35157L7.91705 7.13703L8.07796 7.29257Z" fill="white"/>
<path d="M6.31803 4.27831V4.26758C5.64758 5.80691 7.24055 6.38617 7.24055 6.38617C8.25426 6.72407 8.96761 6 8.96761 6C8.38835 6.24672 8.25426 6.17699 7.92708 6.10727C7.59991 6.04291 7.32637 5.73182 7.32637 5.73182C7.29955 5.68891 7.36391 5.69964 7.36391 5.69964C7.44437 5.80691 7.76618 6.09118 8.24353 6.12336C8.72089 6.15018 8.95688 5.941 8.95688 5.941C8.77452 6.03754 8.58143 5.99463 8.47416 5.96782C8.36689 5.93564 8.05581 5.77473 8.00217 5.38856C7.94854 4.99702 7.77691 4.93802 7.54091 4.7932C7.31028 4.64303 7.04746 4.72884 6.94019 4.74493C6.83292 4.76102 6.69347 4.74493 6.54329 4.66984C6.39311 4.58939 6.31803 4.28903 6.31803 4.28903V4.27831ZM7.321 5.44755L7.47655 5.60846L7.24592 5.56555L7.13328 5.75328L7.10646 5.53873L6.87583 5.49583L7.08501 5.40465L7.05819 5.19011L7.21373 5.35101L7.42291 5.25983L7.31028 5.44755H7.321Z" fill="white"/>
</g>
<defs>
<clipPath id="clip0_2205_1003">
<rect width="18" height="10.8343" fill="white" transform="translate(0 0.583008)"/>
</clipPath>
</defs>
</svg>
