<svg width="18" height="12" viewBox="0 0 18 12" fill="none" xmlns="http://www.w3.org/2000/svg">
<g clip-path="url(#clip0_2205_2704)">
<mask id="mask0_2205_2704" style="mask-type:luminance" maskUnits="userSpaceOnUse" x="0" y="0" width="18" height="12">
<path d="M18 0.5H0V11.5H18V0.5Z" fill="white"/>
</mask>
<g mask="url(#mask0_2205_2704)">
<path d="M9.00536 0.5V0.848315V0.97191V1.02809L7.00477 2.07303H9.00536V2.38764V2.85955V3.33146V3.64045H7.00477L9.00536 4.69101V4.86517V5.21348V5.24719H8.38856H8.15793H8.05602L5.25089 3.77528V5.24719H4.95054H4.5H4.04946H3.74911V3.77528L0.949344 5.24719H0.611442H0V11.5H18V0.5H9.00536Z" fill="#1A237B"/>
<path d="M0 3.64062V4.68557L1.99523 3.64062H0Z" fill="#1A237B"/>
<path d="M5.25098 0.5V1.9382L7.9971 0.5H5.25098Z" fill="#1A237B"/>
<path d="M3.74955 0.5H1.00879L3.74955 1.9382V0.5Z" fill="#1A237B"/>
<path d="M0 2.07326H1.99523L0 1.02832V2.07326Z" fill="#1A237B"/>
<path d="M8.99966 0.5L6.00145 2.07303H5.32564L8.32922 0.5H7.99668L5.25055 1.9382V0.5H4.9502V2.09551V2.26966V2.38764H5.40073H6.07117H6.3018H6.40371H9.00502V2.07303H7.00443L9.00502 1.02809V0.97191V0.848315V0.5H8.99966Z" fill="white"/>
<path d="M3.74911 0.5V1.9382L1.00834 0.5H0L2.99821 2.07303H2.32777L0 0.853933V1.02809L1.99523 2.07303H0V2.38764H2.59058H2.92849H3.59893H4.04946V2.26966V2.15169V2.09551V0.5H3.74911Z" fill="white"/>
<path d="M6.07117 3.33154H5.40073H4.9502V3.4439V3.5675V3.61806V5.24727H5.25055V3.77536L8.05568 5.24727H8.15759H8.38822H9.00502V5.21357L6.00145 3.64053H6.67189L9.00502 4.86525V4.69109L7.00443 3.64053H9.00502V3.33154H6.40371H6.07117Z" fill="white"/>
<path d="M3.59893 3.33154H2.92849H2.69785H2.59058H0V3.64053H1.99523L0 4.68548V5.21357L2.99821 3.64053H3.66865L0.611442 5.24727H0.949344L3.74911 3.77536V5.24727H4.04946V3.61806V3.4439V3.33154H3.59893Z" fill="white"/>
<path d="M2.99821 3.64062L0 5.21366V5.24737H0.611442L3.66865 3.64062H2.99821Z" fill="#BD0034"/>
<path d="M0 0.853933L2.32777 2.07303H2.99821L0 0.5V0.853933Z" fill="#BD0034"/>
<path d="M9.00019 0.5H8.32975L5.32617 2.07303H6.00198L9.00019 0.5Z" fill="#BD0034"/>
<path d="M6.00195 3.64062L9.00553 5.21366V4.86534L6.67239 3.64062H6.00195Z" fill="#BD0034"/>
<path d="M4.04946 0.5V2.09551V2.15169V2.26966V2.38764H3.59893H2.92849H2.59058H0V3.33146H2.59058H2.69785H2.92849H3.59893H4.04946V3.44382V3.61798V5.24719H4.5H4.95054V3.61798V3.56742V3.44382V3.33146H5.40107H6.07151H6.40405H9.00536V2.85955V2.38764H6.40405H6.30215H6.07151H5.40107H4.95054V2.26966V2.09551V0.5H4.04946Z" fill="#BD0034"/>
<path d="M12.4971 3.70776H12.9852L13.1353 3.22461L13.2855 3.70776H13.7736L13.3821 4.01113L13.5322 4.49989L13.1353 4.19652L12.7384 4.49989L12.894 4.01113L12.4971 3.70776Z" fill="white"/>
<path d="M12.7119 3.78629H13.0337L13.1356 3.46045L13.2375 3.78629H13.5594L13.2965 3.98292L13.3984 4.30876L13.1356 4.10652L12.8728 4.30876L12.9747 3.98292L12.7119 3.78629Z" fill="#BD0034"/>
<path d="M10.5391 5.77539H11.0271L11.1773 5.28662L11.3275 5.77539H11.8209L11.424 6.07314L11.5742 6.5619L11.1773 6.25853L10.7858 6.5619L10.936 6.07314L10.5391 5.77539Z" fill="white"/>
<path d="M10.7539 5.8483H11.0811L11.1776 5.52246L11.2795 5.8483H11.6013L11.3385 6.04493L11.4404 6.37078L11.1776 6.16853L10.9148 6.37078L11.0167 6.04493L10.7539 5.8483Z" fill="#BD0034"/>
<path d="M14.2402 5.26389H14.68L14.8141 4.82568L14.9482 5.26389H15.3827L15.0287 5.52793L15.1681 5.96052L14.8141 5.69647L14.4601 5.96052L14.5942 5.52793L14.2402 5.26389Z" fill="white"/>
<path d="M14.4385 5.32607H14.7227L14.8139 5.03955L14.8997 5.32607H15.1894L14.9587 5.50584L15.0446 5.79236L14.8139 5.61258L14.5779 5.79236L14.6691 5.50584L14.4385 5.32607Z" fill="#BD0034"/>
<path d="M12.4277 9.00563H12.9695L13.1357 8.46631L13.302 9.00563H13.8491L13.4093 9.34271L13.5755 9.88766L13.1357 9.55058L12.6959 9.88766L12.8622 9.34271L12.4277 9.00563Z" fill="white"/>
<path d="M12.6631 9.09002H13.0224L13.1351 8.73047L13.2477 9.09002H13.6071L13.3174 9.31474L13.4247 9.67429L13.1351 9.44957L12.8454 9.67429L12.9581 9.31474L12.6631 9.09002Z" fill="#BD0034"/>
</g>
</g>
<defs>
<clipPath id="clip0_2205_2704">
<rect width="18" height="11" fill="white" transform="translate(0 0.5)"/>
</clipPath>
</defs>
</svg>
