<svg width="18" height="12" viewBox="0 0 18 12" fill="none" xmlns="http://www.w3.org/2000/svg">
<g clip-path="url(#clip0_2205_2797)">
<mask id="mask0_2205_2797" style="mask-type:luminance" maskUnits="userSpaceOnUse" x="0" y="0" width="18" height="12">
<path d="M18 0.751953H0V11.2484H18V0.751953Z" fill="white"/>
</mask>
<g mask="url(#mask0_2205_2797)">
<path d="M18 0.751953H0V11.2484H18V0.751953Z" fill="#CB1D23"/>
<path d="M1.73213 4.55471L2.07003 3.50346L1.17969 2.85447L2.27921 2.84911L2.62248 1.80322L2.96574 2.84911L4.06527 2.85447L3.18028 3.50346L3.51282 4.55471L2.62248 3.90573L1.73213 4.55471Z" fill="#F7DE29"/>
<path d="M4.80072 5.11794L5.1708 5.26812L5.43362 4.9624L5.40144 5.3593L5.77688 5.51485L5.38535 5.61139L5.35853 6.00829L5.14399 5.67039L4.75781 5.76157L5.0099 5.45585L4.80072 5.11794Z" fill="#F7DE29"/>
<path d="M6.81153 3.10635L6.41999 3.03663L6.2269 3.39062L6.17327 2.99372L5.77637 2.91863L6.13572 2.747L6.08209 2.3501L6.36099 2.63436L6.72035 2.46273L6.53262 2.81672L6.81153 3.10635Z" fill="#F7DE29"/>
<path d="M5.97482 4.89801L6.09818 4.5172L5.77637 4.2812H6.17327L6.29663 3.90039L6.42535 4.2812H6.82226L6.50044 4.5172L6.6238 4.89801L6.29663 4.66201L5.97482 4.89801Z" fill="#F7DE29"/>
<path d="M4.82166 1.41682L5.18638 1.58845L5.45992 1.29346L5.41165 1.69036L5.77101 1.86199L5.37947 1.93708L5.3312 2.33934L5.13275 1.98535L4.74121 2.06044L5.01475 1.76545L4.82166 1.41682Z" fill="#F7DE29"/>
</g>
</g>
<defs>
<clipPath id="clip0_2205_2797">
<rect width="18" height="10.4964" fill="white" transform="translate(0 0.751953)"/>
</clipPath>
</defs>
</svg>
