<svg width="16" height="16" viewBox="0 0 16 16" fill="none" xmlns="http://www.w3.org/2000/svg">
<path d="M8 0C3.5888 0 0 3.5888 0 8C0 12.4112 3.5888 16 8 16C12.4112 16 16 12.4112 16 8C16 3.5888 12.4112 0 8 0ZM1.6 8C1.6 7.2808 1.7248 6.5904 1.9448 5.9448L3.2 7.2L4.8 8.8V10.4L6.4 12L7.2 12.8V14.3448C4.0488 13.9488 1.6 11.2576 1.6 8ZM13.064 11.8984C12.5416 11.4776 11.7496 11.2 11.2 11.2V10.4C11.2 9.97565 11.0314 9.56869 10.7314 9.26863C10.4313 8.96857 10.0243 8.8 9.6 8.8H6.4V6.4C6.82435 6.4 7.23131 6.23143 7.53137 5.93137C7.83143 5.63131 8 5.22435 8 4.8V4H8.8C9.22435 4 9.63131 3.83143 9.93137 3.53137C10.2314 3.23131 10.4 2.82435 10.4 2.4V2.0712C12.7424 3.0224 14.4 5.32 14.4 8C14.3999 9.41176 13.9298 10.7833 13.064 11.8984Z" fill="#203C7C"/>
</svg>
