<svg width="24" height="24" viewBox="0 0 24 24" fill="none" xmlns="http://www.w3.org/2000/svg">
<mask id="mask0_2169_8735" style="mask-type:alpha" maskUnits="userSpaceOnUse" x="0" y="0" width="24" height="24">
<rect width="24" height="24" fill="#D9D9D9"/>
</mask>
<g mask="url(#mask0_2169_8735)">
<path d="M19.5 15.5L18.075 14.1L19.175 13H16V11H19.15L18.075 9.925L19.5 8.5L23 12L19.5 15.5ZM2 5V3H14V5H2ZM6.5 17.5H9.5V15H12V12H9.5V9.5H6.5V12H4V15H6.5V17.5ZM3 21C2.45 21 1.97917 20.8042 1.5875 20.4125C1.19583 20.0208 1 19.55 1 19V8C1 7.45 1.19583 6.97917 1.5875 6.5875C1.97917 6.19583 2.45 6 3 6H13C13.55 6 14.0208 6.19583 14.4125 6.5875C14.8042 6.97917 15 7.45 15 8V19C15 19.55 14.8042 20.0208 14.4125 20.4125C14.0208 20.8042 13.55 21 13 21H3ZM3 19H13V8H3V19Z" fill="#203C7C"/>
</g>
</svg>
