<svg width="24" height="24" viewBox="0 0 24 24" fill="none" xmlns="http://www.w3.org/2000/svg">
<mask id="mask0_2169_8741" style="mask-type:alpha" maskUnits="userSpaceOnUse" x="0" y="0" width="24" height="24">
<rect width="24" height="24" fill="#D9D9D9"/>
</mask>
<g mask="url(#mask0_2169_8741)">
<path d="M14 11C14.8333 11 15.5417 10.7083 16.125 10.125C16.7083 9.54167 17 8.83333 17 8C17 7.16667 16.7083 6.45833 16.125 5.875C15.5417 5.29167 14.8333 5 14 5C13.1667 5 12.4583 5.29167 11.875 5.875C11.2917 6.45833 11 7.16667 11 8C11 8.83333 11.2917 9.54167 11.875 10.125C12.4583 10.7083 13.1667 11 14 11ZM8 15.75C8.75 14.8667 9.65 14.1875 10.7 13.7125C11.75 13.2375 12.85 13 14 13C15.15 13 16.25 13.2375 17.3 13.7125C18.35 14.1875 19.25 14.8667 20 15.75V4H8V15.75ZM8 18C7.45 18 6.97917 17.8042 6.5875 17.4125C6.19583 17.0208 6 16.55 6 16V4C6 3.45 6.19583 2.97917 6.5875 2.5875C6.97917 2.19583 7.45 2 8 2H20C20.55 2 21.0208 2.19583 21.4125 2.5875C21.8042 2.97917 22 3.45 22 4V16C22 16.55 21.8042 17.0208 21.4125 17.4125C21.0208 17.8042 20.55 18 20 18H8ZM4 22C3.45 22 2.97917 21.8042 2.5875 21.4125C2.19583 21.0208 2 20.55 2 20V6H4V20H18V22H4ZM14 9C13.7167 9 13.4792 8.90417 13.2875 8.7125C13.0958 8.52083 13 8.28333 13 8C13 7.71667 13.0958 7.47917 13.2875 7.2875C13.4792 7.09583 13.7167 7 14 7C14.2833 7 14.5208 7.09583 14.7125 7.2875C14.9042 7.47917 15 7.71667 15 8C15 8.28333 14.9042 8.52083 14.7125 8.7125C14.5208 8.90417 14.2833 9 14 9ZM10.7 16H17.3C16.8167 15.6667 16.2917 15.4167 15.725 15.25C15.1583 15.0833 14.5833 15 14 15C13.4167 15 12.8417 15.0833 12.275 15.25C11.7083 15.4167 11.1833 15.6667 10.7 16Z" fill="#203C7C"/>
</g>
</svg>
