<svg width="48" height="48" viewBox="0 0 48 48" fill="none" xmlns="http://www.w3.org/2000/svg">
<g clip-path="url(#clip0_2098_2709)">
<path d="M0 16C0 10.4 0 7.6 1.09 5.46C2.05 3.58 3.58 2.05 5.46 1.09C7.6 0 10.4 0 16 0H32C37.6 0 40.4 0 42.54 1.09C44.42 2.05 45.95 3.58 46.91 5.46C48 7.6 48 10.4 48 16V32C48 37.6 48 40.4 46.91 42.54C45.95 44.42 44.42 45.95 42.54 46.91C40.4 48 37.6 48 32 48H16C10.4 48 7.6 48 5.46 46.91C3.58 45.95 2.05 44.42 1.09 42.54C0 40.4 0 37.6 0 32L0 16Z" fill="url(#paint0_linear_2098_2709)"/>
<path d="M0 16C0 10.4 0 7.6 1.09 5.46C2.05 3.58 3.58 2.05 5.46 1.09C7.6 0 10.4 0 16 0H32C37.6 0 40.4 0 42.54 1.09C44.42 2.05 45.95 3.58 46.91 5.46C48 7.6 48 10.4 48 16V32C48 37.6 48 40.4 46.91 42.54C45.95 44.42 44.42 45.95 42.54 46.91C40.4 48 37.6 48 32 48H16C10.4 48 7.6 48 5.46 46.91C3.58 45.95 2.05 44.42 1.09 42.54C0 40.4 0 37.6 0 32L0 16Z" fill="url(#paint1_linear_2098_2709)"/>
<path fill-rule="evenodd" clip-rule="evenodd" d="M1.13 9.51C1 11.13 1 13.18 1 16V32C1 34.82 1 36.87 1.13 38.49C1.26 40.1 1.52 41.18 1.98 42.09C2.84 43.78 4.22 45.16 5.91 46.02C6.82 46.48 7.9 46.74 9.51 46.87C11.13 47 13.18 47 16 47H32C34.82 47 36.87 47 38.49 46.87C40.1 46.74 41.18 46.48 42.09 46.02C43.78 45.16 45.16 43.78 46.02 42.09C46.48 41.18 46.74 40.1 46.87 38.49C47 36.87 47 34.82 47 32V16C47 13.18 47 11.13 46.87 9.51C46.74 7.9 46.48 6.82 46.02 5.91C45.16 4.22 43.78 2.84 42.09 1.98C41.18 1.52 40.1 1.26 38.49 1.13C36.87 1 34.82 1 32 1H16C13.18 1 11.13 1 9.51 1.13C7.9 1.26 6.82 1.52 5.91 1.98C4.22 2.84 2.84 4.22 1.98 5.91C1.52 6.82 1.26 7.9 1.13 9.51ZM1.09 5.46C0 7.6 0 10.4 0 16V32C0 37.6 0 40.4 1.09 42.54C2.05 44.42 3.58 45.95 5.46 46.91C7.6 48 10.4 48 16 48H32C37.6 48 40.4 48 42.54 46.91C44.42 45.95 45.95 44.42 46.91 42.54C48 40.4 48 37.6 48 32V16C48 10.4 48 7.6 46.91 5.46C45.95 3.58 44.42 2.05 42.54 1.09C40.4 0 37.6 0 32 0H16C10.4 0 7.6 0 5.46 1.09C3.58 2.05 2.05 3.58 1.09 5.46Z" fill="#C8CDDA"/>
<path d="M3 14.2C3 10.28 3 8.32 3.76 6.82C4.43 5.5 5.5 4.43 6.82 3.76C8.32 3 10.28 3 14.2 3H33.8C37.72 3 39.68 3 41.18 3.76C42.5 4.43 43.57 5.5 44.24 6.82C45 8.32 45 10.28 45 14.2V33.8C45 37.72 45 39.68 44.24 41.18C43.57 42.5 42.5 43.57 41.18 44.24C39.68 45 37.72 45 33.8 45H14.2C10.28 45 8.32 45 6.82 44.24C5.5 43.57 4.43 42.5 3.76 41.18C3 39.68 3 37.72 3 33.8V14.2Z" fill="url(#paint2_radial_2098_2709)"/>
<path d="M3 14.2C3 10.28 3 8.32 3.76 6.82C4.43 5.5 5.5 4.43 6.82 3.76C8.32 3 10.28 3 14.2 3H33.8C37.72 3 39.68 3 41.18 3.76C42.5 4.43 43.57 5.5 44.24 6.82C45 8.32 45 10.28 45 14.2V33.8C45 37.72 45 39.68 44.24 41.18C43.57 42.5 42.5 43.57 41.18 44.24C39.68 45 37.72 45 33.8 45H14.2C10.28 45 8.32 45 6.82 44.24C5.5 43.57 4.43 42.5 3.76 41.18C3 39.68 3 37.72 3 33.8V14.2Z" fill="url(#paint3_radial_2098_2709)" fill-opacity="0.7"/>
<path fill-rule="evenodd" clip-rule="evenodd" d="M3.59 9.64C3.5 10.78 3.5 12.23 3.5 14.2V33.8C3.5 35.77 3.5 37.21 3.59 38.36C3.68 39.5 3.87 40.29 4.2 40.95C4.82 42.17 5.82 43.17 7.04 43.79C7.71 44.13 8.5 44.31 9.63 44.4C10.77 44.49 12.22 44.49 14.19 44.49H33.79C35.76 44.49 37.2 44.49 38.35 44.4C39.49 44.31 40.28 44.12 40.94 43.79C42.16 43.17 43.16 42.17 43.78 40.95C44.12 40.28 44.3 39.49 44.39 38.36C44.48 37.22 44.48 35.77 44.48 33.8V14.2C44.48 12.23 44.48 10.79 44.39 9.64C44.3 8.5 44.11 7.71 43.78 7.05C43.16 5.83 42.16 4.83 40.94 4.21C40.27 3.87 39.48 3.69 38.35 3.6C37.21 3.51 35.76 3.51 33.79 3.51H14.2C12.23 3.51 10.79 3.51 9.64 3.6C8.5 3.69 7.71 3.88 7.05 4.21C5.83 4.83 4.83 5.83 4.21 7.05C3.87 7.72 3.69 8.51 3.6 9.64H3.59ZM3.76 6.82C3 8.32 3 10.28 3 14.2V33.8C3 37.72 3 39.68 3.76 41.18C4.43 42.5 5.5 43.57 6.82 44.24C8.32 45 10.28 45 14.2 45H33.8C37.72 45 39.68 45 41.18 44.24C42.5 43.57 43.57 42.5 44.24 41.18C45 39.68 45 37.72 45 33.8V14.2C45 10.28 45 8.32 44.24 6.82C43.57 5.5 42.5 4.43 41.18 3.76C39.68 3 37.72 3 33.8 3H14.2C10.28 3 8.32 3 6.82 3.76C5.5 4.43 4.43 5.5 3.76 6.82Z" fill="white" fill-opacity="0.5"/>
<g opacity="0.5">
<path d="M35.95 9.41998H12.07C11.72 9.41998 11.42 9.71998 11.42 10.07V28.26C11.42 32.23 14.28 35.09 17.7 37.05C20.72 38.76 23.68 39.51 23.83 39.56C23.93 39.56 24.03 39.61 24.13 39.56C24.23 39.51 27.25 38.81 30.26 37.05C33.68 35.09 36.54 32.23 36.54 28.26V10.07C36.54 9.71998 36.24 9.41998 35.94 9.41998H35.95ZM35.3 28.27C35.3 31.23 33.39 33.8 29.67 35.96C27.16 37.37 24.64 38.12 23.99 38.32C23.34 38.17 20.82 37.42 18.31 35.96C14.59 33.8 12.68 31.24 12.68 28.27V10.68H35.29V28.27H35.3Z" fill="white"/>
<path d="M19.16 34.6C21.47 35.86 23.73 36.36 23.83 36.41H24.13C24.23 36.41 26.49 35.86 28.8 34.6C31.97 32.89 33.67 30.63 33.67 28.12V13.19C33.67 12.84 33.37 12.54 33.02 12.54H14.94C14.59 12.54 14.29 12.84 14.29 13.19V28.17C14.34 30.68 16 32.89 19.16 34.6ZM15.59 13.84H32.43V28.16C32.43 32.78 25.14 34.89 24.04 35.2C22.93 34.9 15.65 32.84 15.65 28.16C15.6 28.16 15.6 13.84 15.6 13.84H15.59Z" fill="white"/>
<path d="M23.38 23.79V30.12C23.38 30.47 23.68 30.77 24.03 30.77C24.38 30.77 24.68 30.47 24.68 30.12V23.79C26.44 23.49 27.85 21.93 27.85 20.07C27.85 18.01 26.14 16.3 24.08 16.3C22.02 16.3 20.21 18.01 20.21 20.12C20.21 21.98 21.57 23.49 23.38 23.79ZM23.98 17.61C25.39 17.61 26.49 18.72 26.49 20.12C26.49 21.52 25.38 22.63 23.98 22.63C22.58 22.63 21.47 21.52 21.47 20.12C21.47 18.72 22.58 17.61 23.98 17.61Z" fill="white"/>
</g>
</g>
<defs>
<linearGradient id="paint0_linear_2098_2709" x1="24" y1="0" x2="24" y2="48" gradientUnits="userSpaceOnUse">
<stop stop-color="#174299"/>
<stop offset="1" stop-color="#001E59"/>
</linearGradient>
<linearGradient id="paint1_linear_2098_2709" x1="24" y1="0" x2="24" y2="48" gradientUnits="userSpaceOnUse">
<stop stop-color="#D2D8E4"/>
<stop offset="1" stop-color="#C2C9D6"/>
</linearGradient>
<radialGradient id="paint2_radial_2098_2709" cx="0" cy="0" r="1" gradientUnits="userSpaceOnUse" gradientTransform="translate(-13.4418 60.9928) rotate(-40.08) scale(82.9)">
<stop offset="0.28" stop-color="#20FF4D"/>
<stop offset="0.46" stop-color="#1499FF"/>
<stop offset="0.76" stop-color="#FF6FC6"/>
<stop offset="1" stop-color="#BC67FF"/>
</radialGradient>
<radialGradient id="paint3_radial_2098_2709" cx="0" cy="0" r="1" gradientUnits="userSpaceOnUse" gradientTransform="translate(-2.69245 -5.11018) rotate(45) scale(68.68)">
<stop stop-color="#FF0000"/>
<stop offset="1" stop-color="#00A3FF"/>
</radialGradient>
<clipPath id="clip0_2098_2709">
<rect width="48" height="48" fill="white"/>
</clipPath>
</defs>
</svg>
