<svg width="28" height="28" viewBox="0 0 28 28" fill="none" xmlns="http://www.w3.org/2000/svg">
<rect width="28" height="28" rx="6" fill="white"/>
<path fill-rule="evenodd" clip-rule="evenodd" d="M20.9867 7.55123C21.2321 7.55123 21.4635 7.65188 21.6344 7.82254C21.8054 7.99754 21.9012 8.23377 21.8967 8.47434C21.8533 11.0819 21.7523 13.0769 21.5644 14.6562C21.381 16.2356 21.1054 17.4081 20.6898 18.3575C20.4098 18.9919 20.0635 19.5169 19.6567 19.9631C19.11 20.5538 18.4844 20.9825 17.8021 21.3894C17.5103 21.5639 17.2067 21.7362 16.8884 21.9169C16.2098 22.3025 15.4626 22.7265 14.6167 23.2925C14.311 23.4981 13.9123 23.4981 13.6065 23.2925C12.7474 22.7199 11.9906 22.2907 11.3054 21.902C11.1536 21.8155 11.0047 21.7311 10.8588 21.6475C10.0579 21.1838 9.33652 20.7419 8.70652 20.1031C8.28652 19.6831 7.92326 19.1712 7.63441 18.5631C7.24094 17.7494 6.97348 16.765 6.77674 15.4919C6.51442 13.79 6.38327 11.5631 6.33537 8.47434C6.33095 8.23377 6.42231 7.99754 6.59326 7.82254C6.76347 7.65188 6.99999 7.55123 7.24536 7.55123H7.62116C8.78095 7.55565 11.34 7.44188 13.5535 5.71813C13.8821 5.46438 14.3412 5.46438 14.6698 5.71813C16.8833 7.44188 19.4423 7.55565 20.6065 7.55123H20.9867ZM18.9523 17.7757C19.2367 17.1894 19.4733 16.38 19.6523 15.2162C19.8667 13.825 19.9979 11.935 20.0598 9.36253C18.6944 9.32311 16.3498 9.06065 14.1135 7.55565C11.8779 9.05623 9.53327 9.31876 8.17232 9.36253C8.22095 11.4888 8.31673 13.1425 8.47 14.4419C8.64537 15.9207 8.89442 16.9225 9.20537 17.6269C9.41094 18.095 9.6379 18.4319 9.90979 18.7294C10.2723 19.1275 10.7321 19.4557 11.3577 19.8319C11.6171 19.9876 11.9029 20.1495 12.2146 20.3259C12.7695 20.6399 13.4046 20.9995 14.1135 21.4507C14.8098 21.0069 15.4361 20.651 15.9843 20.3392C16.1494 20.2453 16.3078 20.1553 16.4588 20.0681C17.2288 19.6262 17.7977 19.2588 18.2221 18.83C18.5065 18.5369 18.7379 18.2175 18.9523 17.7757Z" fill="#3375BB"/>
</svg>
