<svg width="24" height="25" viewBox="0 0 24 25" fill="none" xmlns="http://www.w3.org/2000/svg">
<mask id="mask0_1761_3000" style="mask-type:alpha" maskUnits="userSpaceOnUse" x="0" y="0" width="24" height="25">
<rect y="0.5" width="24" height="24" fill="#D9D9D9"/>
</mask>
<g mask="url(#mask0_1761_3000)">
<path d="M5 21.5C4.45 21.5 3.97917 21.3042 3.5875 20.9125C3.19583 20.5208 3 20.05 3 19.5V5.5C3 4.95 3.19583 4.47917 3.5875 4.0875C3.97917 3.69583 4.45 3.5 5 3.5H19C19.55 3.5 20.0208 3.69583 20.4125 4.0875C20.8042 4.47917 21 4.95 21 5.5V13.85C20.6833 13.7333 20.3583 13.6458 20.025 13.5875C19.6917 13.5292 19.35 13.5 19 13.5V5.5H5V19.5H13C13 19.85 13.0292 20.1917 13.0875 20.525C13.1458 20.8583 13.2333 21.1833 13.35 21.5H5ZM19 23.5L17.6 22.1L19.175 20.5H15V18.5H19.175L17.6 16.9L19 15.5L23 19.5L19 23.5ZM11 17.5H13V13.5H17V11.5H13V7.5H11V11.5H7V13.5H11V17.5Z" fill="#203C7C"/>
</g>
</svg>
