<svg width="24" height="24" viewBox="0 0 24 24" fill="none" xmlns="http://www.w3.org/2000/svg">
<path d="M21.9992 12.3254C21.9992 6.76802 17.5223 2.26376 11.9996 2.26376C6.47685 2.26376 2 6.76802 2 12.3254C2 17.3461 5.65682 21.5083 10.437 22.2629V15.2332H7.89858V12.3246H10.437V10.1085C10.437 7.58636 11.9304 6.19367 14.2138 6.19367C15.3081 6.19367 16.4523 6.38987 16.4523 6.38987V8.86587H15.1922C13.9505 8.86587 13.563 9.64145 13.563 10.4372V12.3254H16.3364L15.8931 15.234H13.563V22.2638C18.3432 21.5091 22 17.347 22 12.3254H21.9992Z" fill="white"/>
</svg>
