<svg width="24" height="24" viewBox="0 0 24 24" fill="none" xmlns="http://www.w3.org/2000/svg">
<path d="M12 3C9.555 3 9.24975 3.01125 8.28975 3.054C7.33125 3.099 6.67875 3.24975 6.105 3.4725C5.51325 3.702 5.01075 4.01025 4.5105 4.5105C4.01025 5.01075 3.70125 5.5125 3.4725 6.105C3.24975 6.67875 3.09825 7.33125 3.054 8.28975C3.009 9.24975 3 9.555 3 12C3 14.445 3.01125 14.7503 3.054 15.7103C3.099 16.668 3.24975 17.3213 3.4725 17.895C3.69847 18.4956 4.0527 19.0398 4.5105 19.4895C4.95996 19.9476 5.50417 20.3019 6.105 20.5275C6.6795 20.7495 7.332 20.9018 8.28975 20.946C9.24975 20.991 9.555 21 12 21C14.445 21 14.7503 20.9888 15.7103 20.946C16.668 20.901 17.3213 20.7495 17.895 20.5275C18.4955 20.3013 19.0396 19.9471 19.4895 19.4895C19.9478 19.0402 20.3021 18.4959 20.5275 17.895C20.7495 17.3213 20.9018 16.668 20.946 15.7103C20.991 14.7503 21 14.445 21 12C21 9.555 20.9888 9.24975 20.946 8.28975C20.901 7.332 20.7495 6.678 20.5275 6.105C20.3014 5.50441 19.9472 4.9603 19.4895 4.5105C19.0404 4.05198 18.4961 3.69764 17.895 3.4725C17.3213 3.24975 16.668 3.09825 15.7103 3.054C14.7503 3.009 14.445 3 12 3ZM12 4.62C14.4023 4.62 14.6888 4.632 15.6375 4.67325C16.515 4.7145 16.9913 4.86 17.3077 4.9845C17.7292 5.14725 18.0278 5.34225 18.3442 5.6565C18.6585 5.9715 18.8535 6.27075 19.0163 6.69225C19.1392 7.00875 19.2862 7.485 19.326 8.3625C19.3687 9.312 19.3785 9.597 19.3785 12C19.3785 14.403 19.3673 14.6888 19.323 15.6375C19.2773 16.515 19.131 16.9913 19.0072 17.3077C18.8608 17.6983 18.6307 18.0521 18.333 18.3442C18.0421 18.6422 17.6886 18.8718 17.298 19.0163C16.983 19.1392 16.4993 19.2862 15.6217 19.326C14.6663 19.3687 14.385 19.3785 11.9775 19.3785C9.56925 19.3785 9.288 19.3673 8.33325 19.323C7.455 19.2773 6.97125 19.131 6.65625 19.0072C6.26543 18.8626 5.91201 18.6322 5.622 18.333C5.32094 18.0441 5.09004 17.69 4.947 17.298C4.82325 16.983 4.67775 16.4993 4.632 15.6217C4.59825 14.6768 4.58625 14.385 4.58625 11.9887C4.58625 9.59175 4.59825 9.29925 4.632 8.343C4.67775 7.4655 4.82325 6.9825 4.947 6.6675C5.1045 6.24 5.30625 5.9475 5.622 5.63175C5.93625 5.3175 6.2295 5.115 6.65625 4.95825C6.97125 4.83375 7.4445 4.6875 8.322 4.6425C9.27825 4.60875 9.5595 4.5975 11.9662 4.5975L12 4.62ZM12 7.3785C11.3931 7.3785 10.7921 7.49804 10.2314 7.73029C9.67072 7.96254 9.16125 8.30296 8.73211 8.73211C8.30296 9.16125 7.96254 9.67072 7.73029 10.2314C7.49804 10.7921 7.3785 11.3931 7.3785 12C7.3785 12.6069 7.49804 13.2079 7.73029 13.7686C7.96254 14.3293 8.30296 14.8387 8.73211 15.2679C9.16125 15.697 9.67072 16.0375 10.2314 16.2697C10.7921 16.502 11.3931 16.6215 12 16.6215C13.2257 16.6215 14.4012 16.1346 15.2679 15.2679C16.1346 14.4012 16.6215 13.2257 16.6215 12C16.6215 10.7743 16.1346 9.59881 15.2679 8.73211C14.4012 7.86541 13.2257 7.3785 12 7.3785ZM12 15C10.3425 15 9 13.6575 9 12C9 10.3425 10.3425 9 12 9C13.6575 9 15 10.3425 15 12C15 13.6575 13.6575 15 12 15ZM17.8845 7.19625C17.8741 7.47572 17.7557 7.74027 17.5543 7.9343C17.3529 8.12834 17.0842 8.23674 16.8045 8.23674C16.5248 8.23674 16.2561 8.12834 16.0547 7.9343C15.8533 7.74027 15.7349 7.47572 15.7245 7.19625C15.7245 6.90982 15.8383 6.63511 16.0408 6.43257C16.2434 6.23004 16.5181 6.11625 16.8045 6.11625C17.0909 6.11625 17.3656 6.23004 17.5682 6.43257C17.7707 6.63511 17.8845 6.90982 17.8845 7.19625Z" fill="white"/>
</svg>
