<svg width="24" height="24" viewBox="0 0 24 24" fill="none" xmlns="http://www.w3.org/2000/svg">
<path d="M18.3353 18.339H15.6698V14.1623C15.6698 13.1663 15.6495 11.8845 14.2808 11.8845C12.891 11.8845 12.6788 12.9683 12.6788 14.0887V18.339H10.0132V9.75H12.5738V10.9207H12.6082C12.966 10.2457 13.836 9.53325 15.1357 9.53325C17.8365 9.53325 18.336 11.3108 18.336 13.6245L18.3353 18.339ZM7.00275 8.57475C6.79941 8.57485 6.59804 8.53485 6.41018 8.45703C6.22232 8.37921 6.05164 8.26511 5.90793 8.12126C5.76421 7.97741 5.65028 7.80662 5.57265 7.61868C5.49501 7.43075 5.4552 7.22934 5.4555 7.026C5.45565 6.71983 5.54658 6.42059 5.7168 6.1661C5.88702 5.91162 6.12888 5.71333 6.4118 5.5963C6.69472 5.47927 7.00598 5.44877 7.30624 5.50864C7.60649 5.56852 7.88224 5.71608 8.09863 5.93268C8.31502 6.14928 8.46232 6.42517 8.5219 6.72549C8.58149 7.0258 8.55068 7.33703 8.43338 7.61984C8.31608 7.90264 8.11755 8.14431 7.8629 8.31428C7.60825 8.48425 7.30892 8.5749 7.00275 8.57475ZM8.33925 18.339H5.66625V9.75H8.33925V18.339ZM19.6688 3H4.32825C3.594 3 3 3.5805 3 4.29675V19.7033C3 20.4202 3.594 21 4.32825 21H19.6665C20.4 21 21 20.4202 21 19.7033V4.29675C21 3.5805 20.4 3 19.6665 3H19.6688Z" fill="white"/>
</svg>
