<svg width="10" height="10" viewBox="0 0 10 10" fill="none" xmlns="http://www.w3.org/2000/svg">
<mask id="mask0_1748_1262" style="mask-type:alpha" maskUnits="userSpaceOnUse" x="0" y="0" width="10" height="10">
<rect width="10" height="10" fill="#D9D9D9"/>
</mask>
<g mask="url(#mask0_1748_1262)">
<path d="M5.00008 9.70832L3.60425 8.33332H1.66675V6.39582L0.291748 4.99999L1.66675 3.60416V1.66666H3.60425L5.00008 0.291656L6.39591 1.66666H8.33341V3.60416L9.70841 4.99999L8.33341 6.39582V8.33332H6.39591L5.00008 9.70832ZM5.00008 8.54166L6.04175 7.49999H7.50008V6.04166L8.54175 4.99999L7.50008 3.95832V2.49999H6.04175L5.00008 1.45832L3.95841 2.49999H2.50008V3.95832L1.45841 4.99999L2.50008 6.04166V7.49999H3.95841L5.00008 8.54166ZM3.78133 6.77082L5.00008 6.03124L6.21883 6.77082L5.89591 5.38541L6.97925 4.44791L5.55216 4.33332L5.00008 3.02082L4.448 4.33332L3.02091 4.44791L4.10425 5.38541L3.78133 6.77082Z" fill="#555555"/>
</g>
</svg>
