<svg width="32" height="32" viewBox="0 0 32 32" fill="none" xmlns="http://www.w3.org/2000/svg">
<rect width="32" height="32" rx="6" fill="#F2FCFF"/>
<mask id="mask0_273_2880" style="mask-type:alpha" maskUnits="userSpaceOnUse" x="4" y="4" width="24" height="24">
<rect x="4" y="4" width="24" height="24" fill="#D9D9D9"/>
</mask>
<g mask="url(#mask0_273_2880)">
<path d="M6 14C6 12.3333 6.37083 10.8042 7.1125 9.4125C7.85417 8.02083 8.85 6.86666 10.1 5.95L11.275 7.55C10.275 8.28333 9.47917 9.20833 8.8875 10.325C8.29583 11.4417 8 12.6667 8 14H6ZM24 14C24 12.6667 23.7042 11.4417 23.1125 10.325C22.5208 9.20833 21.725 8.28333 20.725 7.55L21.9 5.95C23.15 6.86666 24.1458 8.02083 24.8875 9.4125C25.6292 10.8042 26 12.3333 26 14H24ZM8 23V21H10V14C10 12.6167 10.4167 11.3875 11.25 10.3125C12.0833 9.2375 13.1667 8.53333 14.5 8.2V7.5C14.5 7.08333 14.6458 6.72916 14.9375 6.4375C15.2292 6.14583 15.5833 6 16 6C16.4167 6 16.7708 6.14583 17.0625 6.4375C17.3542 6.72916 17.5 7.08333 17.5 7.5V8.2C18.8333 8.53333 19.9167 9.2375 20.75 10.3125C21.5833 11.3875 22 12.6167 22 14V21H24V23H8ZM16 26C15.45 26 14.9792 25.8042 14.5875 25.4125C14.1958 25.0208 14 24.55 14 24H18C18 24.55 17.8042 25.0208 17.4125 25.4125C17.0208 25.8042 16.55 26 16 26ZM12 21H20V14C20 12.9 19.6083 11.9583 18.825 11.175C18.0417 10.3917 17.1 10 16 10C14.9 10 13.9583 10.3917 13.175 11.175C12.3917 11.9583 12 12.9 12 14V21Z" fill="#203C7C"/>
</g>
</svg>
