<svg width="11" height="10" viewBox="0 0 11 10" fill="none" xmlns="http://www.w3.org/2000/svg">
<mask id="mask0_1748_1246" style="mask-type:alpha" maskUnits="userSpaceOnUse" x="0" y="0" width="11" height="10">
<rect x="0.519287" width="10" height="10" fill="#D9D9D9"/>
</mask>
<g mask="url(#mask0_1748_1246)">
<path d="M4.89429 7.08333H6.14429V5.625H7.60262V4.375H6.14429V2.91667H4.89429V4.375H3.43595V5.625H4.89429V7.08333ZM2.60262 8.75C2.37345 8.75 2.17727 8.6684 2.01408 8.50521C1.85088 8.34201 1.76929 8.14583 1.76929 7.91667V2.08333C1.76929 1.85417 1.85088 1.65799 2.01408 1.49479C2.17727 1.3316 2.37345 1.25 2.60262 1.25H8.43595C8.66512 1.25 8.8613 1.3316 9.0245 1.49479C9.18769 1.65799 9.26929 1.85417 9.26929 2.08333V7.91667C9.26929 8.14583 9.18769 8.34201 9.0245 8.50521C8.8613 8.6684 8.66512 8.75 8.43595 8.75H2.60262ZM2.60262 7.91667H8.43595V2.08333H2.60262V7.91667Z" fill="white"/>
</g>
</svg>
