<svg width="24" height="24" viewBox="0 0 24 24" fill="none" xmlns="http://www.w3.org/2000/svg">
<path d="M21.9608 5.93617C21.2121 6.26583 20.4189 6.48343 19.6068 6.58198C20.4618 6.06804 21.102 5.26207 21.4092 4.31291C20.6167 4.77539 19.7384 5.11204 18.8035 5.29953C18.1866 4.63992 17.3693 4.20243 16.4783 4.055C15.5873 3.90758 14.6726 4.05846 13.8761 4.48423C13.0797 4.90999 12.4461 5.58681 12.0738 6.40959C11.7015 7.23237 11.6112 8.15506 11.8171 9.03438C8.4089 8.87355 5.38819 7.23695 3.36661 4.76289C2.99895 5.38771 2.80719 6.10036 2.81163 6.8253C2.81163 8.25024 3.5366 9.50269 4.63489 10.2385C3.98397 10.2178 3.34742 10.0418 2.7783 9.72518V9.77601C2.77793 10.723 3.10518 11.6409 3.70452 12.374C4.30386 13.1072 5.13838 13.6104 6.0665 13.7983C5.4651 13.9595 4.83523 13.9837 4.22324 13.8692C4.48677 14.6841 4.99806 15.3964 5.68581 15.9069C6.37355 16.4173 7.20344 16.7003 8.05975 16.7166C6.60938 17.8547 4.8186 18.4725 2.97496 18.4707C2.64997 18.4707 2.32582 18.4515 2 18.4148C3.87968 19.6184 6.06526 20.2572 8.29724 20.2556C15.8419 20.2556 19.9626 14.0092 19.9626 8.60106C19.9626 8.4269 19.9626 8.25108 19.9501 8.07608C20.755 7.49681 21.4494 6.77764 22 5.95284L21.9608 5.93617Z" fill="white"/>
</svg>
