<svg width="24" height="24" viewBox="0 0 24 24" fill="none" xmlns="http://www.w3.org/2000/svg">
<path d="M21.0499 7.9894C20.9431 7.60656 20.7393 7.25775 20.4582 6.97669C20.1771 6.69563 19.8283 6.49183 19.4455 6.38498C18.0086 6.00001 12.2256 6.00001 12.2256 6.00001C12.2256 6.00001 6.4572 5.99233 5.00569 6.38498C4.62285 6.49183 4.27404 6.69563 3.99298 6.97669C3.71192 7.25775 3.50812 7.60656 3.40127 7.9894C3.12889 9.46051 2.9946 10.9539 3.00017 12.45C2.99565 13.9404 3.12994 15.4281 3.40127 16.8936C3.50812 17.2765 3.71192 17.6253 3.99298 17.9064C4.27404 18.1874 4.62285 18.3912 5.00569 18.4981C6.44107 18.8838 12.2256 18.8838 12.2256 18.8838C12.2256 18.8838 17.9932 18.8838 19.4455 18.4981C19.8283 18.3912 20.1771 18.1874 20.4582 17.9064C20.7393 17.6253 20.9431 17.2765 21.0499 16.8936C21.3156 15.4275 21.4442 13.9399 21.4341 12.45C21.4453 10.9544 21.3166 9.46105 21.0499 7.9894ZM10.3799 15.2093V9.68219L15.1932 12.45L10.3799 15.2093Z" fill="white"/>
</svg>
