<svg width="432" height="88" viewBox="0 0 432 88" fill="none" xmlns="http://www.w3.org/2000/svg">
<g clip-path="url(#clip0_508_70)">
<path d="M82.2112 0H5.77893C2.5926 0 0 2.5926 0 5.77893V82.2112C0 85.4074 2.5926 87.9901 5.77893 87.9901H82.2112C85.4074 87.9901 87.9901 85.3975 87.9901 82.2112V5.77893C87.9901 2.58271 85.3975 0 82.2112 0ZM71.8705 59.8673H60.1147C58.1851 59.8673 58.1851 56.9581 60.1147 56.9581H62.5094L49.8432 35.0298L46.6569 40.6009C46.6569 40.6009 52.6437 50.9416 53.2473 52.0005C53.8509 53.0593 56.1763 53.94 56.1763 53.94V54.9097H46.934V53.94C46.934 53.94 48.9823 53.9202 47.884 52.0005C46.7856 50.0708 43.9852 45.1726 43.9852 45.1726C43.9852 45.1726 41.2045 50.0708 40.0468 52.0005C38.8791 53.9301 40.9572 53.94 40.9572 53.94V54.9097H33.7632V53.94C33.7632 53.94 35.5938 53.8905 36.6922 52.0005C37.7906 50.1104 41.3134 43.9852 41.3134 43.9852L35.6928 35.0496L23.5016 56.9581H25.2531C27.5489 56.9581 27.5489 59.8673 25.2531 59.8673H16.1196C15.3181 59.8673 14.665 59.2142 14.665 58.4127C14.665 58.007 14.8233 57.6408 15.1004 57.3638C15.3775 57.0867 15.7535 56.9482 16.1394 56.9482C16.3176 56.9482 16.4858 56.9482 16.6639 56.9581C18.5737 56.9976 20.0877 57.0372 21.1762 55.1769C22.0767 53.6431 31.4279 37.4245 32.6945 35.2277C33.3377 34.0996 33.4267 33.0408 32.9518 32.2294C32.4867 31.4576 31.5268 30.9925 30.4383 31.032H30.4185H28.4394C28.0535 31.032 27.6874 30.8836 27.4103 30.6065C27.1135 30.3097 26.9551 29.8941 26.9848 29.4686C27.0442 28.7165 27.6874 28.1228 28.4691 28.1228H40.1457C40.5613 28.1228 40.9473 28.2811 41.2342 28.578C41.5212 28.8649 41.6795 29.2509 41.6795 29.6665C41.6795 30.2998 41.2837 30.8737 40.69 31.1013C40.3535 31.23 40.1062 31.4674 40.0072 31.7445C39.9082 32.0315 39.9577 32.358 40.1457 32.7044C40.6306 33.5653 42.9263 37.5432 43.9852 39.364L47.8345 32.6846C48.0027 32.3976 48.0324 32.0612 47.9235 31.7445C47.8147 31.4477 47.597 31.2102 47.3199 31.1013C46.7163 30.8638 46.3304 30.2998 46.3304 29.6665C46.3304 28.8155 47.0231 28.1228 47.8642 28.1228H59.709C60.1048 28.1228 60.4709 28.2712 60.7381 28.5483C61.035 28.8452 61.1834 29.2509 61.1636 29.6764C61.1141 30.4383 60.461 31.032 59.6892 31.032H57.6013C56.7206 31.0024 55.9487 31.4576 55.454 32.269C54.8899 33.1893 54.8305 34.3866 55.3055 35.2376C56.3841 37.1771 65.7551 53.7025 66.8337 55.2165C67.7144 56.4534 68.4565 56.968 69.3768 56.968H71.8705C73.81 56.968 73.81 59.8871 71.8705 59.8772V59.8673Z" fill="#011641"/>
</g>
<path d="M112.191 44.5525C111.777 44.5525 111.466 44.4835 111.259 44.3453C111.086 44.2072 111 44.0172 111 43.7755C111 43.4647 111.155 43.2747 111.466 43.2056C111.777 43.102 112.088 42.9812 112.399 42.843C113.193 42.5322 113.884 42.0314 114.471 41.3407C115.092 40.65 115.472 39.7867 115.61 38.7506C115.783 37.4728 115.973 35.7288 116.18 33.5185C116.387 31.2737 116.612 28.7872 116.854 26.0589C117.095 23.2961 117.337 20.4987 117.579 17.6668C117.614 17.4942 117.631 17.2524 117.631 16.9416C117.631 16.6308 117.631 16.2854 117.631 15.9055C117.631 15.2148 117.51 14.6795 117.268 14.2996C117.061 13.9198 116.733 13.6089 116.284 13.3672C115.904 13.16 115.49 12.97 115.041 12.7974C114.592 12.5901 114.108 12.4175 113.59 12.2793C113.176 12.1757 112.83 12.0376 112.554 11.8649C112.312 11.6922 112.191 11.4505 112.191 11.1397C112.191 10.8288 112.312 10.6216 112.554 10.518C112.83 10.3799 113.158 10.3108 113.538 10.3108C114.091 10.3108 114.747 10.3281 115.507 10.3626C116.301 10.3972 117.165 10.4317 118.097 10.4662C119.029 10.4662 119.979 10.4835 120.946 10.518C121.948 10.5526 122.915 10.5698 123.847 10.5698C124.123 10.5698 124.382 10.6734 124.624 10.8806C124.866 11.0879 125.021 11.2951 125.09 11.5023C125.367 12.193 125.608 12.8319 125.816 13.419C126.023 13.9716 126.265 14.5932 126.541 15.2839L134 32.8451C134.07 32.9832 134.139 33.0523 134.208 33.0523C134.311 33.0523 134.38 32.9832 134.415 32.8451L141.201 16.5272C141.477 15.1803 141.685 14.127 141.823 13.3672C141.995 12.5729 142.151 11.9685 142.289 11.5541C142.427 11.1051 142.721 10.8806 143.17 10.8806H145.501C147.02 10.8116 148.609 10.708 150.267 10.5698C151.959 10.3972 153.288 10.3108 154.255 10.3108C154.635 10.3108 154.946 10.3799 155.188 10.518C155.464 10.6216 155.602 10.8288 155.602 11.1397C155.602 11.4505 155.481 11.675 155.24 11.8131C154.998 11.9512 154.722 12.0721 154.411 12.1757C154.273 12.2103 154.083 12.2793 153.841 12.3829C153.634 12.4865 153.461 12.5729 153.323 12.6419C152.287 13.1254 151.527 13.6607 151.044 14.2478C150.595 14.8349 150.405 15.7847 150.474 17.097C150.577 19.6181 150.681 21.7765 150.785 23.5724C150.888 25.3682 150.975 27.0259 151.044 28.5454C151.147 30.065 151.251 31.6709 151.354 33.3631C151.493 35.0208 151.631 37.0066 151.769 39.3204C151.838 40.1838 152.218 40.8918 152.909 41.4444C153.599 41.9624 154.463 42.3595 155.499 42.6358C155.809 42.7394 156.069 42.8603 156.276 42.9984C156.517 43.1366 156.638 43.3783 156.638 43.7237C156.638 43.9654 156.535 44.1554 156.328 44.2935C156.155 44.4316 155.93 44.5007 155.654 44.5007C154.929 44.5007 154.031 44.4835 152.96 44.4489C151.924 44.4144 150.888 44.3798 149.852 44.3453C148.816 44.3108 147.953 44.2935 147.262 44.2935C146.571 44.2935 145.76 44.3108 144.827 44.3453C143.929 44.3798 142.997 44.4144 142.03 44.4489C141.097 44.518 140.251 44.5525 139.492 44.5525C139.215 44.5525 138.956 44.4835 138.715 44.3453C138.507 44.2072 138.404 44.0172 138.404 43.7755C138.404 43.4647 138.507 43.2229 138.715 43.0502C138.956 42.843 139.233 42.7049 139.543 42.6358C140.856 42.3595 141.771 42.0142 142.289 41.5998C142.807 41.1508 143.031 40.4083 142.962 39.3722C142.859 37.3001 142.772 35.1935 142.703 33.0523C142.634 30.9111 142.565 28.8044 142.496 26.7323C142.462 24.6257 142.393 22.6399 142.289 20.775C142.289 20.5678 142.237 20.4815 142.134 20.516C142.03 20.516 141.926 20.6369 141.823 20.8786L132.395 44.2417C132.187 44.7943 131.894 45.0187 131.514 44.9151C131.169 44.8115 130.927 44.6216 130.789 44.3453C128.993 40.3392 127.145 36.3849 125.246 32.4825C123.346 28.58 121.654 24.7984 120.169 21.1376C120.031 20.7923 119.841 20.6714 119.599 20.775C119.392 20.8786 119.271 21.1549 119.237 21.6038C119.168 23.1579 119.116 24.971 119.081 27.0431C119.081 29.1153 119.099 31.2046 119.133 33.3113C119.168 35.4179 119.185 37.3174 119.185 39.0096C119.185 39.9766 119.496 40.7364 120.117 41.2889C120.739 41.8415 121.74 42.2905 123.122 42.6358C123.433 42.7049 123.744 42.8258 124.054 42.9984C124.365 43.1366 124.521 43.3783 124.521 43.7237C124.521 43.9654 124.382 44.1554 124.106 44.2935C123.83 44.4316 123.554 44.5007 123.277 44.5007C122.345 44.5007 121.62 44.4835 121.102 44.4489C120.584 44.4144 120.1 44.3971 119.651 44.3971C119.237 44.3626 118.667 44.3453 117.942 44.3453C117.147 44.3453 116.301 44.3626 115.403 44.3971C114.505 44.4316 113.746 44.4662 113.124 44.5007C112.502 44.5353 112.191 44.5525 112.191 44.5525Z" fill="#011641"/>
<path d="M172.951 44.6561C172.64 44.6561 172.398 44.5698 172.226 44.3971C172.053 44.2244 171.967 44.0345 171.967 43.8273C171.967 43.3093 172.312 42.9466 173.003 42.7394C174.142 42.3941 174.937 42.0314 175.386 41.6516C175.869 41.2717 176.111 40.5464 176.111 39.4758V15.8537C176.111 14.7486 175.886 13.9716 175.438 13.5226C175.023 13.0391 174.212 12.6592 173.003 12.3829C172.588 12.2793 172.295 12.1239 172.122 11.9167C171.984 11.7095 171.915 11.5023 171.915 11.2951C171.915 11.0533 172.001 10.8634 172.174 10.7252C172.381 10.5526 172.64 10.4662 172.951 10.4662C173.711 10.4662 174.54 10.4835 175.438 10.518C176.335 10.5526 177.216 10.6044 178.079 10.6734C178.943 10.708 179.72 10.7252 180.411 10.7252C182.345 10.7252 184.417 10.708 186.627 10.6734C188.837 10.6389 190.788 10.6044 192.481 10.5698C193.586 10.5698 194.484 10.5008 195.174 10.3626C195.9 10.2245 196.331 10.1554 196.469 10.1554C196.746 10.1554 197.022 10.2417 197.298 10.4144C197.609 10.5526 197.782 10.8288 197.816 11.2433C197.955 12.5211 198.127 13.7816 198.334 15.0249C198.576 16.2336 198.697 17.3042 198.697 18.2367C198.697 18.582 198.628 18.841 198.49 19.0137C198.352 19.1864 198.196 19.2727 198.024 19.2727C197.851 19.2727 197.661 19.2036 197.454 19.0655C197.247 18.9274 197.074 18.7029 196.936 18.3921C196.556 17.4596 196.21 16.6826 195.9 16.0609C195.623 15.4048 195.295 14.8867 194.915 14.5069C194.536 14.127 194.052 13.7643 193.465 13.419C192.878 13.0391 192.101 12.8492 191.134 12.8492H187.87C187.007 12.8492 186.299 13.0564 185.746 13.4708C185.194 13.8852 184.917 14.4723 184.917 15.2321V24.7638C184.917 25.2128 185.038 25.5409 185.28 25.7481C185.522 25.9208 185.85 26.0071 186.264 26.0071H190.668C191.565 26.0071 192.204 25.679 192.584 25.0228C192.999 24.3667 193.361 23.6242 193.672 22.7953C193.948 22.1737 194.311 21.8629 194.76 21.8629C194.933 21.8629 195.088 21.9665 195.226 22.1737C195.364 22.3809 195.416 22.6744 195.382 23.0543C195.347 23.5378 195.295 24.0213 195.226 24.5048C195.192 24.9883 195.157 25.4718 195.123 25.9553C195.123 26.4042 195.123 26.8705 195.123 27.354C195.123 27.8029 195.123 28.2692 195.123 28.7526C195.157 29.2016 195.192 29.6678 195.226 30.1513C195.261 30.6348 195.295 31.1356 195.33 31.6536C195.399 32.1716 195.364 32.5515 195.226 32.7933C195.123 33.0005 194.984 33.1041 194.812 33.1041C194.225 33.1041 193.81 32.6897 193.569 31.8608C193.258 30.7557 192.895 29.9096 192.481 29.3225C192.101 28.7354 191.583 28.4418 190.927 28.4418H186.057C185.677 28.4418 185.384 28.5454 185.176 28.7526C185.004 28.9599 184.917 29.2534 184.917 29.6333V39.424C184.917 40.391 185.125 41.0817 185.539 41.4962C185.954 41.876 186.592 42.066 187.456 42.066H192.066C192.757 42.066 193.43 41.9796 194.087 41.807C194.777 41.5998 195.364 41.2889 195.848 40.8745C196.435 40.391 196.97 39.7694 197.454 39.0096C197.972 38.2498 198.421 37.4901 198.801 36.7303C198.939 36.454 199.077 36.2813 199.215 36.2123C199.388 36.1432 199.578 36.1087 199.785 36.1087C199.992 36.1087 200.13 36.2295 200.199 36.4713C200.268 36.6785 200.303 36.903 200.303 37.1447C200.303 37.7663 200.217 38.4398 200.044 39.165C199.871 39.8903 199.647 40.6673 199.37 41.4962C199.129 42.2905 198.887 43.1193 198.645 43.9827C198.576 44.2244 198.421 44.3798 198.179 44.4489C197.937 44.5525 197.678 44.6043 197.402 44.6043C197.229 44.6043 196.556 44.5871 195.382 44.5525C194.207 44.5525 192.74 44.5353 190.978 44.5007C189.252 44.4662 187.439 44.4316 185.539 44.3971C183.674 44.3971 181.965 44.3971 180.411 44.3971C179.72 44.3971 178.926 44.4144 178.028 44.4489C177.13 44.4835 176.232 44.518 175.334 44.5525C174.436 44.6216 173.642 44.6561 172.951 44.6561Z" fill="#011641"/>
<path d="M234.449 44.7597C233.067 44.7597 231.651 44.7252 230.201 44.6561C228.785 44.5871 227.507 44.518 226.367 44.4489C225.228 44.4144 224.433 44.3971 223.985 44.3971C223.294 44.3971 222.482 44.3971 221.55 44.3971C220.652 44.4316 219.719 44.4662 218.752 44.5007C217.82 44.5353 216.974 44.5525 216.214 44.5525C216.007 44.5525 215.8 44.4835 215.592 44.3453C215.385 44.2072 215.282 44.0172 215.282 43.7755C215.282 43.4647 215.368 43.2229 215.541 43.0502C215.713 42.843 215.955 42.7049 216.266 42.6358C217.578 42.3595 218.476 42.0142 218.96 41.5998C219.443 41.1853 219.685 40.4428 219.685 39.3722V15.8537C219.685 14.7486 219.46 13.9716 219.011 13.5226C218.562 13.0736 217.647 12.6938 216.266 12.3829C215.955 12.3139 215.713 12.193 215.541 12.0203C215.368 11.8131 215.282 11.5541 215.282 11.2433C215.282 11.0015 215.385 10.8116 215.592 10.6734C215.8 10.5353 216.007 10.4662 216.214 10.4662C216.974 10.4662 217.82 10.4835 218.752 10.518C219.719 10.5526 220.652 10.6044 221.55 10.6734C222.482 10.708 223.294 10.7252 223.985 10.7252C224.503 10.7252 225.211 10.708 226.108 10.6734C227.041 10.6044 228.042 10.5526 229.113 10.518C230.218 10.449 231.289 10.3972 232.325 10.3626C233.361 10.2935 234.224 10.259 234.915 10.259C237.332 10.259 239.629 10.6734 241.805 11.5023C243.98 12.2966 245.914 13.4363 247.607 14.9213C249.299 16.4063 250.628 18.1849 251.595 20.257C252.562 22.2946 253.046 24.5566 253.046 27.0431C253.046 29.3225 252.649 31.5327 251.854 33.6739C251.06 35.7806 249.869 37.6627 248.28 39.3204C246.726 40.9781 244.792 42.3077 242.478 43.3093C240.164 44.2762 237.488 44.7597 234.449 44.7597ZM233.62 41.9106C235.899 41.9106 237.764 41.358 239.215 40.2529C240.7 39.1478 241.787 37.5937 242.478 35.5906C243.203 33.5876 243.566 31.2392 243.566 28.5454C243.566 26.2661 243.342 24.194 242.893 22.3291C242.478 20.4642 241.839 18.8583 240.976 17.5114C240.112 16.1645 239.025 15.1285 237.712 14.4032C236.4 13.6435 234.863 13.2636 233.102 13.2636C232.066 13.2636 231.202 13.2981 230.512 13.3672C229.855 13.4363 229.355 13.5917 229.009 13.8334C228.664 14.0406 228.491 14.4205 228.491 14.9731V37.4555C228.491 38.5261 228.664 39.3895 229.009 40.0457C229.389 40.7018 229.959 41.1853 230.719 41.4962C231.479 41.7724 232.446 41.9106 233.62 41.9106Z" fill="#011641"/>
<path d="M284.105 45.1224C281.687 45.1224 279.391 44.7252 277.215 43.9309C275.039 43.102 273.105 41.9451 271.413 40.4601C269.721 38.9405 268.391 37.1447 267.424 35.0726C266.457 32.9659 265.974 30.6348 265.974 28.0792C265.974 25.7308 266.371 23.486 267.165 21.3448C267.959 19.1691 269.134 17.2351 270.688 15.5429C272.276 13.8507 274.227 12.5038 276.541 11.5023C278.855 10.5008 281.532 10 284.571 10C286.988 10 289.285 10.4144 291.461 11.2433C293.636 12.0376 295.57 13.1945 297.263 14.7141C298.955 16.1991 300.284 17.9949 301.251 20.1016C302.218 22.1737 302.702 24.4875 302.702 27.0431C302.702 29.357 302.305 31.6018 301.51 33.7775C300.716 35.9532 299.525 37.8872 297.936 39.5794C296.382 41.2717 294.448 42.6185 292.134 43.6201C289.82 44.6216 287.144 45.1224 284.105 45.1224ZM285.037 42.6876C286.867 42.6876 288.387 42.1351 289.596 41.0299C290.839 39.9248 291.771 38.4052 292.393 36.4713C293.015 34.5028 293.325 32.258 293.325 29.7369C293.325 27.6648 293.136 25.6099 292.756 23.5724C292.376 21.5348 291.789 19.6871 290.994 18.0294C290.2 16.3372 289.181 14.9903 287.938 13.9888C286.729 12.9873 285.262 12.4865 283.535 12.4865C281.739 12.4865 280.219 13.0391 278.976 14.1442C277.767 15.2494 276.852 16.7689 276.231 18.7029C275.643 20.6369 275.35 22.8644 275.35 25.3855C275.35 27.4576 275.54 29.5124 275.92 31.55C276.3 33.5876 276.869 35.4525 277.629 37.1447C278.424 38.8024 279.425 40.1493 280.634 41.1853C281.877 42.1869 283.345 42.6876 285.037 42.6876Z" fill="#011641"/>
<path d="M316.423 44.7597C316.043 44.7597 315.68 44.6907 315.335 44.5525C315.024 44.4489 314.869 44.2244 314.869 43.8791C314.869 43.5337 315.007 43.3093 315.283 43.2056C315.594 43.0675 315.905 42.9466 316.215 42.843C316.906 42.6358 317.562 42.3595 318.184 42.0142C318.84 41.6343 319.496 41.1335 320.152 40.5119C320.843 39.8557 321.586 39.0096 322.38 37.9736L328.648 29.8405C329.097 29.2534 329.322 28.6663 329.322 28.0792C329.322 27.4576 329.08 26.8187 328.596 26.1625L321.137 15.6983C320.826 15.2148 320.498 14.7659 320.152 14.3514C319.807 13.9025 319.393 13.5053 318.909 13.16C318.46 12.8146 317.89 12.5556 317.2 12.3829C316.889 12.2793 316.613 12.1585 316.371 12.0203C316.164 11.8822 316.06 11.6404 316.06 11.2951C316.06 11.0188 316.164 10.8288 316.371 10.7252C316.578 10.5871 316.803 10.518 317.044 10.518C318.771 10.518 320.498 10.5871 322.225 10.7252C323.951 10.8288 325.661 10.8634 327.353 10.8288C328.493 10.8288 329.615 10.777 330.72 10.6734C331.825 10.5353 333.017 10.4662 334.295 10.4662C334.571 10.4662 334.865 10.5353 335.175 10.6734C335.521 10.8116 335.693 11.0015 335.693 11.2433C335.693 11.5541 335.521 11.8131 335.175 12.0203C334.865 12.193 334.554 12.3139 334.243 12.3829C333.172 12.6247 332.378 12.901 331.86 13.2118C331.342 13.4881 331.083 13.9198 331.083 14.5069C331.083 14.9213 331.307 15.422 331.756 16.0091L336.729 22.7953C337.04 23.2097 337.334 23.4515 337.61 23.5206C337.886 23.5551 338.197 23.3479 338.543 22.8989L342.531 17.3042C343.015 16.648 343.343 16.0955 343.516 15.6465C343.688 15.163 343.775 14.7486 343.775 14.4032C343.775 13.9198 343.602 13.5226 343.257 13.2118C342.911 12.901 342.324 12.6247 341.495 12.3829C341.15 12.2793 340.805 12.1412 340.459 11.9685C340.114 11.7958 339.941 11.5541 339.941 11.2433C339.941 11.0015 340.097 10.8288 340.407 10.7252C340.753 10.5871 341.15 10.518 341.599 10.518C342.359 10.518 342.963 10.5353 343.412 10.5698C343.861 10.6044 344.293 10.6389 344.707 10.6734C345.156 10.708 345.726 10.7252 346.417 10.7252C347.418 10.7252 348.247 10.6734 348.903 10.5698C349.594 10.4317 350.474 10.3626 351.545 10.3626C351.925 10.3626 352.305 10.4317 352.685 10.5698C353.065 10.6734 353.255 10.8979 353.255 11.2433C353.255 11.5886 353.082 11.8304 352.737 11.9685C352.391 12.0721 352.063 12.1757 351.752 12.2793C351.027 12.5211 350.267 12.901 349.473 13.419C348.679 13.937 348.022 14.5241 347.504 15.1803L340.148 24.3494C339.769 24.7984 339.561 25.23 339.527 25.6445C339.527 26.0589 339.751 26.5769 340.2 27.1986L349.007 39.6312C349.49 40.322 350.025 40.9436 350.613 41.4962C351.2 42.0142 351.787 42.3595 352.374 42.5322C352.685 42.6013 353.065 42.7567 353.514 42.9984C353.997 43.2402 354.239 43.5337 354.239 43.8791C354.239 44.1208 354.118 44.3108 353.876 44.4489C353.634 44.5871 353.324 44.6561 352.944 44.6561C351.493 44.6561 350.164 44.6216 348.955 44.5525C347.746 44.518 346.607 44.4662 345.536 44.3971C344.465 44.328 343.343 44.3108 342.169 44.3453C341.133 44.3453 340.097 44.3626 339.061 44.3971C338.025 44.4662 336.954 44.5007 335.849 44.5007C335.572 44.5007 335.262 44.4316 334.916 44.2935C334.606 44.1554 334.45 43.9654 334.45 43.7237C334.45 43.4129 334.606 43.1711 334.916 42.9984C335.262 42.7912 335.59 42.6531 335.901 42.584C336.591 42.4113 337.282 42.1869 337.973 41.9106C338.663 41.6343 339.009 41.2026 339.009 40.6155C339.009 40.4428 338.974 40.2701 338.905 40.0975C338.836 39.9248 338.732 39.7349 338.594 39.5276L332.896 31.55C332.447 30.8593 332.033 30.4621 331.653 30.3585C331.307 30.2549 330.876 30.6003 330.358 31.3946L325.954 37.9218C325.436 38.6815 325.126 39.3204 325.022 39.8385C324.953 40.322 324.936 40.6846 324.97 40.9263C325.039 41.3753 325.264 41.7724 325.644 42.1178C326.058 42.4286 326.628 42.6358 327.353 42.7394C327.698 42.774 328.044 42.8948 328.389 43.102C328.735 43.3093 328.907 43.5683 328.907 43.8791C328.907 44.1208 328.752 44.2935 328.441 44.3971C328.13 44.5353 327.785 44.6043 327.405 44.6043C326.265 44.6043 325.212 44.5698 324.245 44.5007C323.278 44.4662 322.518 44.4489 321.966 44.4489C320.964 44.4489 320.066 44.5007 319.272 44.6043C318.478 44.7079 317.528 44.7597 316.423 44.7597Z" fill="#011641"/>
<path d="M369.664 44.5525C369.457 44.5525 369.249 44.4835 369.042 44.3453C368.835 44.2072 368.731 44.0172 368.731 43.7755C368.731 43.1884 369.06 42.8085 369.716 42.6358C371.028 42.3595 371.926 42.0142 372.409 41.5998C372.893 41.1853 373.135 40.4428 373.135 39.3722V15.8537C373.135 14.7486 372.91 13.9716 372.461 13.5226C372.012 13.0736 371.097 12.6938 369.716 12.3829C369.06 12.2103 368.731 11.8304 368.731 11.2433C368.731 11.0015 368.835 10.8116 369.042 10.6734C369.249 10.5353 369.457 10.4662 369.664 10.4662C370.424 10.4662 371.27 10.4835 372.202 10.518C373.169 10.5526 374.102 10.6044 375 10.6734C375.932 10.708 376.744 10.7252 377.434 10.7252C378.125 10.7252 378.954 10.708 379.921 10.6734C380.888 10.6389 381.872 10.6044 382.874 10.5698C383.875 10.5353 384.739 10.518 385.464 10.518C385.74 10.518 385.947 10.5871 386.085 10.7252C386.224 10.8288 386.293 11.0188 386.293 11.2951C386.293 11.6404 386.206 11.8822 386.034 12.0203C385.861 12.1585 385.619 12.2793 385.308 12.3829C383.892 12.7974 382.977 13.229 382.563 13.678C382.148 14.127 381.941 14.8695 381.941 15.9055V39.3204C381.941 40.2874 382.166 40.9954 382.615 41.4444C383.064 41.8588 383.962 42.2559 385.308 42.6358C385.619 42.7394 385.861 42.8603 386.034 42.9984C386.206 43.1366 386.293 43.3783 386.293 43.7237C386.293 43.9654 386.224 44.1554 386.085 44.2935C385.947 44.4316 385.74 44.5007 385.464 44.5007C384.739 44.5007 383.875 44.4835 382.874 44.4489C381.872 44.4144 380.888 44.3798 379.921 44.3453C378.954 44.3108 378.125 44.2935 377.434 44.2935C376.744 44.2935 375.932 44.3108 375 44.3453C374.102 44.3798 373.169 44.4144 372.202 44.4489C371.27 44.518 370.424 44.5525 369.664 44.5525Z" fill="#011641"/>
<path d="M402.359 44.6561C402.048 44.6561 401.806 44.5698 401.634 44.3971C401.461 44.2244 401.375 44.0345 401.375 43.8273C401.375 43.3093 401.72 42.9466 402.411 42.7394C403.55 42.3941 404.345 42.0314 404.794 41.6516C405.277 41.2717 405.519 40.5464 405.519 39.4758V15.8537C405.519 14.7486 405.294 13.9716 404.845 13.5226C404.431 13.0391 403.619 12.6592 402.411 12.3829C401.996 12.2793 401.703 12.1239 401.53 11.9167C401.392 11.7095 401.323 11.5023 401.323 11.2951C401.323 11.0533 401.409 10.8634 401.582 10.7252C401.789 10.5526 402.048 10.4662 402.359 10.4662C403.119 10.4662 403.947 10.4835 404.845 10.518C405.743 10.5526 406.624 10.6044 407.487 10.6734C408.351 10.708 409.128 10.7252 409.818 10.7252C411.752 10.7252 413.825 10.708 416.035 10.6734C418.245 10.6389 420.196 10.6044 421.888 10.5698C422.994 10.5698 423.892 10.5008 424.582 10.3626C425.307 10.2245 425.739 10.1554 425.877 10.1554C426.154 10.1554 426.43 10.2417 426.706 10.4144C427.017 10.5526 427.19 10.8288 427.224 11.2433C427.362 12.5211 427.535 13.7816 427.742 15.0249C427.984 16.2336 428.105 17.3042 428.105 18.2367C428.105 18.582 428.036 18.841 427.898 19.0137C427.76 19.1864 427.604 19.2727 427.431 19.2727C427.259 19.2727 427.069 19.2036 426.862 19.0655C426.654 18.9274 426.482 18.7029 426.344 18.3921C425.964 17.4596 425.618 16.6826 425.307 16.0609C425.031 15.4048 424.703 14.8867 424.323 14.5069C423.943 14.127 423.46 13.7643 422.873 13.419C422.286 13.0391 421.509 12.8492 420.542 12.8492H417.278C416.415 12.8492 415.707 13.0564 415.154 13.4708C414.602 13.8852 414.325 14.4723 414.325 15.2321V24.7638C414.325 25.2128 414.446 25.5409 414.688 25.7481C414.93 25.9208 415.258 26.0071 415.672 26.0071H420.075C420.973 26.0071 421.612 25.679 421.992 25.0228C422.407 24.3667 422.769 23.6242 423.08 22.7953C423.356 22.1737 423.719 21.8629 424.168 21.8629C424.34 21.8629 424.496 21.9665 424.634 22.1737C424.772 22.3809 424.824 22.6744 424.789 23.0543C424.755 23.5378 424.703 24.0213 424.634 24.5048C424.6 24.9883 424.565 25.4718 424.53 25.9553C424.53 26.4042 424.53 26.8705 424.53 27.354C424.53 27.8029 424.53 28.2692 424.53 28.7526C424.565 29.2016 424.6 29.6678 424.634 30.1513C424.669 30.6348 424.703 31.1356 424.738 31.6536C424.807 32.1716 424.772 32.5515 424.634 32.7933C424.53 33.0005 424.392 33.1041 424.22 33.1041C423.633 33.1041 423.218 32.6897 422.976 31.8608C422.666 30.7557 422.303 29.9096 421.888 29.3225C421.509 28.7354 420.991 28.4418 420.334 28.4418H415.465C415.085 28.4418 414.792 28.5454 414.584 28.7526C414.412 28.9599 414.325 29.2534 414.325 29.6333V39.424C414.325 40.391 414.533 41.0817 414.947 41.4962C415.361 41.876 416 42.066 416.864 42.066H421.474C422.165 42.066 422.838 41.9796 423.494 41.807C424.185 41.5998 424.772 41.2889 425.256 40.8745C425.843 40.391 426.378 39.7694 426.862 39.0096C427.38 38.2498 427.829 37.4901 428.208 36.7303C428.347 36.454 428.485 36.2813 428.623 36.2123C428.796 36.1432 428.986 36.1087 429.193 36.1087C429.4 36.1087 429.538 36.2295 429.607 36.4713C429.676 36.6785 429.711 36.903 429.711 37.1447C429.711 37.7663 429.624 38.4398 429.452 39.165C429.279 39.8903 429.055 40.6673 428.778 41.4962C428.537 42.2905 428.295 43.1193 428.053 43.9827C427.984 44.2244 427.829 44.3798 427.587 44.4489C427.345 44.5525 427.086 44.6043 426.81 44.6043C426.637 44.6043 425.964 44.5871 424.789 44.5525C423.615 44.5525 422.148 44.5353 420.386 44.5007C418.659 44.4662 416.846 44.4316 414.947 44.3971C413.082 44.3971 411.373 44.3971 409.818 44.3971C409.128 44.3971 408.333 44.4144 407.435 44.4489C406.538 44.4835 405.64 44.518 404.742 44.5525C403.844 44.6216 403.05 44.6561 402.359 44.6561Z" fill="#011641"/>
<path d="M117.108 78.2874V70.9291L111 61.2712H112.851L117.875 69.3489H117.946L122.969 61.2712H124.82L118.712 70.9291V78.2874H117.108Z" fill="#011641"/>
<path d="M129.343 78.5114C125.994 78.4997 123.753 76.0469 123.753 72.1554V72.1319C123.753 68.2404 126.005 65.7994 129.343 65.7994C132.668 65.7994 134.932 68.2286 134.932 72.1319V72.1554C134.932 76.0587 132.68 78.5114 129.343 78.5114ZM129.354 77.12C131.748 77.12 133.34 75.2568 133.34 72.1554V72.1319C133.34 69.0305 131.736 67.1909 129.343 67.1909C126.949 67.1909 125.357 69.0423 125.357 72.1319V72.1554C125.357 75.2686 126.937 77.1082 129.354 77.12Z" fill="#011641"/>
<path d="M141.506 78.4997C138.794 78.4997 137.178 76.7544 137.178 73.8771V66.0235H138.747V73.6177C138.747 75.8936 139.879 77.1082 141.954 77.1082C144.1 77.1082 145.515 75.5752 145.515 73.2875V66.0235H147.084V78.2874H145.515V76.2002H145.48C144.855 77.5209 143.487 78.4997 141.506 78.4997Z" fill="#011641"/>
<path d="M150.014 78.2874V66.0235H151.57V68.2286H151.618C152.054 66.731 153.139 65.7994 154.625 65.7994C155.037 65.7994 155.403 65.882 155.592 65.9409V67.4621C155.391 67.3796 154.955 67.297 154.424 67.297C152.679 67.297 151.57 68.6178 151.57 70.6932V78.2874H150.014Z" fill="#011641"/>
<path d="M169.895 78.5586C165.273 78.5586 162.277 75.0917 162.277 69.6791V69.6673C162.277 64.3608 165.261 61 169.895 61C173.621 61 176.039 63.1108 176.829 66.2829L176.876 66.4716H175.202L175.154 66.3537C174.353 63.8419 172.478 62.4976 169.895 62.4976C166.204 62.4976 163.916 65.2216 163.916 69.6673V69.6791C163.916 74.2191 166.239 77.061 169.895 77.061C173.185 77.061 175.378 74.8205 175.378 71.5305V71.1531H170.096V69.738H176.982V71.1649C176.982 75.7285 174.305 78.5586 169.895 78.5586Z" fill="#011641"/>
<path d="M179.688 78.2874V61.2712H181.245V78.2874H179.688Z" fill="#011641"/>
<path d="M189.257 78.5114C185.908 78.4997 183.668 76.0469 183.668 72.1554V72.1319C183.668 68.2404 185.92 65.7994 189.257 65.7994C192.583 65.7994 194.847 68.2286 194.847 72.1319V72.1554C194.847 76.0587 192.595 78.5114 189.257 78.5114ZM189.269 77.12C191.663 77.12 193.255 75.2568 193.255 72.1554V72.1319C193.255 69.0305 191.651 67.1909 189.257 67.1909C186.864 67.1909 185.272 69.0423 185.272 72.1319V72.1554C185.272 75.2686 186.852 77.1082 189.269 77.12Z" fill="#011641"/>
<path d="M203.06 78.5114C201.126 78.5114 199.581 77.4266 198.874 75.6931H198.838V78.2874H197.27V61.2712H198.838V68.5824H198.874C199.569 66.8843 201.15 65.7994 203.072 65.7994C206.138 65.7994 208.249 68.3112 208.249 72.1437V72.1554C208.249 75.9879 206.15 78.5114 203.06 78.5114ZM202.765 77.12C205.124 77.12 206.645 75.186 206.645 72.1554V72.1437C206.645 69.1366 205.124 67.1909 202.765 67.1909C200.477 67.1909 198.827 69.1956 198.827 72.1437V72.1554C198.827 75.1153 200.454 77.12 202.765 77.12Z" fill="#011641"/>
<path d="M214.198 78.5114C211.78 78.5114 210.129 77.061 210.129 74.8912V74.8677C210.129 72.7804 211.709 71.5187 214.528 71.33L218.348 71.0941V70.0328C218.348 68.264 217.228 67.1909 215.318 67.1909C213.537 67.1909 212.37 68.0517 212.11 69.4432L212.087 69.5612H210.577L210.589 69.4196C210.825 67.3088 212.57 65.7994 215.341 65.7994C218.148 65.7994 219.905 67.3796 219.905 69.8913V78.2874H218.348V76.0469H218.301C217.629 77.5091 216.014 78.5114 214.198 78.5114ZM211.721 74.8912C211.721 76.2356 212.853 77.1436 214.516 77.1436C216.662 77.1436 218.348 75.6341 218.348 73.6766V72.3205L214.716 72.5682C212.794 72.6861 211.721 73.5233 211.721 74.8677V74.8912Z" fill="#011641"/>
<path d="M222.87 78.2874V61.2712H224.427V78.2874H222.87Z" fill="#011641"/>
<path d="M232.905 78.2874V61.2712H234.509V68.8418H244.462V61.2712H246.077V78.2874H244.462V70.3041H234.509V78.2874H232.905Z" fill="#011641"/>
<path d="M254.231 78.5114C250.788 78.5114 248.653 76.0705 248.653 72.1908V72.179C248.653 68.3348 250.823 65.7994 254.101 65.7994C257.38 65.7994 259.443 68.2522 259.443 71.9196V72.5328H250.234C250.281 75.4573 251.849 77.12 254.267 77.12C256.071 77.12 257.321 76.212 257.722 74.8794L257.745 74.7733H259.29L259.266 74.8912C258.842 76.9903 256.884 78.5114 254.231 78.5114ZM254.09 67.1909C252.002 67.1909 250.446 68.6885 250.257 71.2946H257.875C257.698 68.6178 256.189 67.1909 254.09 67.1909Z" fill="#011641"/>
<path d="M265.404 78.5114C262.987 78.5114 261.336 77.061 261.336 74.8912V74.8677C261.336 72.7804 262.916 71.5187 265.734 71.33L269.555 71.0941V70.0328C269.555 68.264 268.435 67.1909 266.524 67.1909C264.744 67.1909 263.576 68.0517 263.317 69.4432L263.293 69.5612H261.784L261.796 69.4196C262.031 67.3088 263.777 65.7994 266.548 65.7994C269.354 65.7994 271.111 67.3796 271.111 69.8913V78.2874H269.555V76.0469H269.508C268.836 77.5091 267.22 78.5114 265.404 78.5114ZM262.928 74.8912C262.928 76.2356 264.06 77.1436 265.722 77.1436C267.869 77.1436 269.555 75.6341 269.555 73.6766V72.3205L265.923 72.5682C264.001 72.6861 262.928 73.5233 262.928 74.8677V74.8912Z" fill="#011641"/>
<path d="M274.077 78.2874V61.2712H275.634V78.2874H274.077Z" fill="#011641"/>
<path d="M282.325 78.5114C280.309 78.5114 279.318 77.5563 279.318 75.4101V67.3324H277.514V66.0235H279.318V62.7099H280.922V66.0235H283.351V67.3324H280.922V75.3865C280.922 76.7426 281.5 77.2025 282.644 77.2025C282.927 77.2025 283.174 77.1671 283.351 77.1436V78.4171C283.104 78.4643 282.703 78.5114 282.325 78.5114Z" fill="#011641"/>
<path d="M285.881 78.2874V61.2712H287.449V68.264H287.484C288.109 66.7664 289.536 65.8112 291.494 65.8112C294.147 65.8112 295.916 67.7334 295.916 70.7404V78.2874H294.347V70.988C294.347 68.5706 293.074 67.2027 290.987 67.2027C288.864 67.2027 287.449 68.7829 287.449 71.0588V78.2874H285.881Z" fill="#011641"/>
<path d="M303.74 78.5114C300.332 78.5114 298.162 76.0469 298.162 72.1437V72.1319C298.162 68.2758 300.367 65.7994 303.728 65.7994C306.582 65.7994 308.433 67.6508 308.74 69.7616L308.751 69.8678H307.218L307.195 69.7734C306.853 68.3348 305.638 67.1909 303.728 67.1909C301.334 67.1909 299.766 69.113 299.766 72.1554V72.1672C299.766 75.2568 301.358 77.12 303.74 77.12C305.567 77.12 306.829 76.0705 307.195 74.5375L307.218 74.4431H308.763L308.751 74.5375C308.386 76.8252 306.416 78.5114 303.74 78.5114Z" fill="#011641"/>
<path d="M314.582 78.5114C312.165 78.5114 310.514 77.061 310.514 74.8912V74.8677C310.514 72.7804 312.094 71.5187 314.913 71.33L318.733 71.0941V70.0328C318.733 68.264 317.613 67.1909 315.703 67.1909C313.922 67.1909 312.755 68.0517 312.495 69.4432L312.472 69.5612H310.962L310.974 69.4196C311.21 67.3088 312.955 65.7994 315.726 65.7994C318.533 65.7994 320.29 67.3796 320.29 69.8913V78.2874H318.733V76.0469H318.686C318.014 77.5091 316.398 78.5114 314.582 78.5114ZM312.106 74.8912C312.106 76.2356 313.238 77.1436 314.901 77.1436C317.047 77.1436 318.733 75.6341 318.733 73.6766V72.3205L315.101 72.5682C313.179 72.6861 312.106 73.5233 312.106 74.8677V74.8912Z" fill="#011641"/>
<path d="M323.149 78.2874V66.0235H324.706V68.2286H324.753C325.189 66.731 326.274 65.7994 327.76 65.7994C328.173 65.7994 328.538 65.882 328.727 65.9409V67.4621C328.526 67.3796 328.09 67.297 327.559 67.297C325.814 67.297 324.706 68.6178 324.706 70.6932V78.2874H323.149Z" fill="#011641"/>
<path d="M334.912 78.5114C331.468 78.5114 329.334 76.0705 329.334 72.1908V72.179C329.334 68.3348 331.504 65.7994 334.782 65.7994C338.06 65.7994 340.124 68.2522 340.124 71.9196V72.5328H330.914C330.961 75.4573 332.53 77.12 334.947 77.12C336.751 77.12 338.001 76.212 338.402 74.8794L338.426 74.7733H339.971L339.947 74.8912C339.522 76.9903 337.565 78.5114 334.912 78.5114ZM334.77 67.1909C332.683 67.1909 331.126 68.6885 330.938 71.2946H338.555C338.379 68.6178 336.869 67.1909 334.77 67.1909Z" fill="#011641"/>
<path d="M347.894 78.2874V61.2712H349.486L359.486 75.5634H359.545V61.2712H361.137V78.2874H359.545L349.545 63.9952H349.486V78.2874H347.894Z" fill="#011641"/>
<path d="M369.291 78.5114C365.848 78.5114 363.713 76.0705 363.713 72.1908V72.179C363.713 68.3348 365.883 65.7994 369.161 65.7994C372.44 65.7994 374.503 68.2522 374.503 71.9196V72.5328H365.294C365.341 75.4573 366.909 77.12 369.327 77.12C371.131 77.12 372.381 76.212 372.782 74.8794L372.805 74.7733H374.35L374.326 74.8912C373.902 76.9903 371.944 78.5114 369.291 78.5114ZM369.15 67.1909C367.062 67.1909 365.506 68.6885 365.317 71.2946H372.935C372.758 68.6178 371.249 67.1909 369.15 67.1909Z" fill="#011641"/>
<path d="M380.488 78.5114C378.471 78.5114 377.481 77.5563 377.481 75.4101V67.3324H375.676V66.0235H377.481V62.7099H379.084V66.0235H381.514V67.3324H379.084V75.3865C379.084 76.7426 379.662 77.2025 380.806 77.2025C381.089 77.2025 381.337 77.1671 381.514 77.1436V78.4171C381.266 78.4643 380.865 78.5114 380.488 78.5114Z" fill="#011641"/>
<path d="M386.307 78.2874L382.816 66.0235H384.397L387.144 76.5421H387.18L390.234 66.0235H391.814L394.868 76.5421H394.903L397.651 66.0235H399.219L395.741 78.2874H394.09L391.036 68.1107H391L387.958 78.2874H386.307Z" fill="#011641"/>
<path d="M406.017 78.5114C402.668 78.4997 400.428 76.0469 400.428 72.1554V72.1319C400.428 68.2404 402.68 65.7994 406.017 65.7994C409.343 65.7994 411.607 68.2286 411.607 72.1319V72.1554C411.607 76.0587 409.355 78.5114 406.017 78.5114ZM406.029 77.12C408.423 77.12 410.015 75.2568 410.015 72.1554V72.1319C410.015 69.0305 408.411 67.1909 406.017 67.1909C403.624 67.1909 402.032 69.0423 402.032 72.1319V72.1554C402.032 75.2686 403.612 77.1082 406.029 77.12Z" fill="#011641"/>
<path d="M413.924 78.2874V66.0235H415.48V68.2286H415.528C415.964 66.731 417.049 65.7994 418.535 65.7994C418.947 65.7994 419.313 65.882 419.502 65.9409V67.4621C419.301 67.3796 418.865 67.297 418.334 67.297C416.589 67.297 415.48 68.6178 415.48 70.6932V78.2874H413.924Z" fill="#011641"/>
<path d="M421.583 78.2874V61.2712H423.139V71.8017H423.186L429.2 66.0235H431.134L425.627 71.3064L431.252 78.2874H429.413L424.507 72.2616L423.139 73.5351V78.2874H421.583Z" fill="#011641"/>
<defs>
<clipPath id="clip0_508_70">
<rect width="88" height="88" fill="white"/>
</clipPath>
</defs>
</svg>
