<svg width="353" height="215" viewBox="0 0 353 215" fill="none" xmlns="http://www.w3.org/2000/svg">
<path d="M1.31428 214.171C0.857139 214.171 0.514283 214.095 0.285713 213.943C0.0952376 213.79 0 213.581 0 213.314C0 212.971 0.171428 212.762 0.514283 212.686C0.857139 212.571 1.19999 212.438 1.54285 212.286C2.41904 211.943 3.18094 211.39 3.82855 210.629C4.51426 209.867 4.93331 208.914 5.08569 207.771C5.27617 206.362 5.48569 204.438 5.71426 202C5.94283 199.524 6.19045 196.781 6.45711 193.772C6.72378 190.724 6.99044 187.638 7.25711 184.514C7.2952 184.324 7.31425 184.057 7.31425 183.714C7.31425 183.372 7.31425 182.991 7.31425 182.572C7.31425 181.81 7.18092 181.219 6.91425 180.8C6.68568 180.381 6.32378 180.038 5.82854 179.772C5.4095 179.543 4.95236 179.333 4.45712 179.143C3.96189 178.914 3.42855 178.724 2.85713 178.572C2.39999 178.457 2.01904 178.305 1.71428 178.114C1.44761 177.924 1.31428 177.657 1.31428 177.314C1.31428 176.972 1.44761 176.743 1.71428 176.629C2.01904 176.476 2.38094 176.4 2.79999 176.4C3.40951 176.4 4.13331 176.419 4.97141 176.457C5.84759 176.495 6.79997 176.533 7.82853 176.572C8.8571 176.572 9.90472 176.591 10.9714 176.629C12.0761 176.667 13.1428 176.686 14.1714 176.686C14.4761 176.686 14.7618 176.8 15.0285 177.029C15.2952 177.257 15.4666 177.486 15.5428 177.714C15.8475 178.476 16.1142 179.181 16.3428 179.829C16.5714 180.438 16.838 181.124 17.1428 181.886L25.3713 201.257C25.4475 201.41 25.5237 201.486 25.5999 201.486C25.7142 201.486 25.7904 201.41 25.8284 201.257L33.3141 183.257C33.6189 181.772 33.8475 180.61 33.9998 179.772C34.1903 178.895 34.3617 178.229 34.5141 177.772C34.6665 177.276 34.9903 177.029 35.4855 177.029H38.057C39.7331 176.953 41.4855 176.838 43.3141 176.686C45.1807 176.495 46.6474 176.4 47.7141 176.4C48.1331 176.4 48.476 176.476 48.7426 176.629C49.0474 176.743 49.1998 176.972 49.1998 177.314C49.1998 177.657 49.0664 177.905 48.7998 178.057C48.5331 178.21 48.2283 178.343 47.8855 178.457C47.7331 178.495 47.5236 178.572 47.2569 178.686C47.0283 178.8 46.8379 178.895 46.6855 178.972C45.5426 179.505 44.7045 180.095 44.1712 180.743C43.676 181.391 43.4665 182.438 43.5427 183.886C43.6569 186.667 43.7712 189.048 43.8855 191.029C43.9998 193.01 44.095 194.838 44.1712 196.514C44.2855 198.191 44.3998 199.962 44.5141 201.829C44.6665 203.657 44.8188 205.848 44.9712 208.4C45.0474 209.352 45.4665 210.133 46.2284 210.743C46.9903 211.314 47.9426 211.752 49.0855 212.057C49.4283 212.171 49.7141 212.305 49.9426 212.457C50.2093 212.61 50.3426 212.876 50.3426 213.257C50.3426 213.524 50.2283 213.733 49.9998 213.886C49.8093 214.038 49.5617 214.114 49.2569 214.114C48.4569 214.114 47.4664 214.095 46.2855 214.057C45.1426 214.019 43.9998 213.981 42.8569 213.943C41.7141 213.905 40.7617 213.886 39.9998 213.886C39.2379 213.886 38.3427 213.905 37.3141 213.943C36.3236 213.981 35.2951 214.019 34.2284 214.057C33.1998 214.133 32.2665 214.171 31.4284 214.171C31.1237 214.171 30.8379 214.095 30.5713 213.943C30.3427 213.79 30.2284 213.581 30.2284 213.314C30.2284 212.971 30.3427 212.705 30.5713 212.514C30.8379 212.286 31.1427 212.133 31.4856 212.057C32.9332 211.752 33.9427 211.371 34.5141 210.914C35.0855 210.419 35.3332 209.6 35.257 208.457C35.1427 206.171 35.0475 203.848 34.9713 201.486C34.8951 199.124 34.8189 196.8 34.7427 194.514C34.7046 192.191 34.6284 190 34.5141 187.943C34.5141 187.714 34.457 187.619 34.3427 187.657C34.2284 187.657 34.1141 187.791 33.9998 188.057L23.5999 213.829C23.3713 214.438 23.0475 214.686 22.6285 214.571C22.2475 214.457 21.9808 214.248 21.8285 213.943C19.8475 209.524 17.8094 205.162 15.7142 200.857C13.619 196.552 11.7523 192.381 10.1142 188.343C9.96186 187.962 9.75233 187.829 9.48567 187.943C9.2571 188.057 9.12377 188.362 9.08567 188.857C9.00948 190.572 8.95234 192.572 8.91424 194.857C8.91424 197.143 8.93329 199.448 8.97139 201.771C9.00948 204.095 9.02853 206.191 9.02853 208.057C9.02853 209.124 9.37138 209.962 10.0571 210.571C10.7428 211.181 11.8476 211.676 13.3714 212.057C13.7142 212.133 14.0571 212.267 14.3999 212.457C14.7428 212.61 14.9142 212.876 14.9142 213.257C14.9142 213.524 14.7618 213.733 14.4571 213.886C14.1523 214.038 13.8476 214.114 13.5428 214.114C12.5142 214.114 11.7142 214.095 11.1428 214.057C10.5714 214.019 10.038 214 9.54281 214C9.08567 213.962 8.4571 213.943 7.65711 213.943C6.78092 213.943 5.84759 213.962 4.85712 214C3.86665 214.038 3.02856 214.076 2.34285 214.114C1.65714 214.152 1.31428 214.171 1.31428 214.171Z" fill="#011641"/>
<path d="M68.3367 214.286C67.9939 214.286 67.7272 214.19 67.5367 214C67.3463 213.81 67.251 213.6 67.251 213.371C67.251 212.8 67.632 212.4 68.3939 212.171C69.651 211.79 70.5272 211.39 71.0224 210.971C71.5558 210.552 71.8224 209.752 71.8224 208.571V182.514C71.8224 181.295 71.5748 180.438 71.0796 179.943C70.6224 179.41 69.7272 178.991 68.3939 178.686C67.9367 178.572 67.6129 178.4 67.4224 178.172C67.2701 177.943 67.1939 177.714 67.1939 177.486C67.1939 177.219 67.2891 177.01 67.4796 176.857C67.7082 176.667 67.9939 176.572 68.3367 176.572C69.1748 176.572 70.0891 176.591 71.0796 176.629C72.07 176.667 73.0415 176.724 73.9938 176.8C74.9462 176.838 75.8034 176.857 76.5653 176.857C78.6986 176.857 80.9843 176.838 83.4224 176.8C85.8605 176.762 88.0128 176.724 89.8795 176.686C91.0985 176.686 92.089 176.61 92.8509 176.457C93.6509 176.305 94.1271 176.229 94.2795 176.229C94.5842 176.229 94.889 176.324 95.1937 176.514C95.5366 176.667 95.7271 176.972 95.7652 177.429C95.9176 178.838 96.108 180.229 96.3366 181.6C96.6033 182.933 96.7366 184.114 96.7366 185.143C96.7366 185.524 96.6604 185.81 96.508 186C96.3556 186.191 96.1842 186.286 95.9937 186.286C95.8033 186.286 95.5937 186.21 95.3652 186.057C95.1366 185.905 94.9461 185.657 94.7937 185.314C94.3747 184.286 93.9937 183.429 93.6509 182.743C93.3461 182.019 92.9842 181.448 92.5652 181.029C92.1461 180.61 91.6128 180.21 90.9652 179.829C90.3176 179.41 89.4604 179.2 88.3938 179.2H84.7938C83.8414 179.2 83.0605 179.429 82.451 179.886C81.8414 180.343 81.5367 180.991 81.5367 181.829V192.343C81.5367 192.838 81.67 193.2 81.9367 193.429C82.2033 193.619 82.5652 193.714 83.0224 193.714H87.8795C88.87 193.714 89.5747 193.352 89.9938 192.629C90.4509 191.905 90.8509 191.086 91.1938 190.172C91.4985 189.486 91.8985 189.143 92.3938 189.143C92.5842 189.143 92.7557 189.257 92.908 189.486C93.0604 189.714 93.1176 190.038 93.0795 190.457C93.0414 190.991 92.9842 191.524 92.908 192.057C92.8699 192.591 92.8318 193.124 92.7938 193.657C92.7938 194.152 92.7938 194.667 92.7938 195.2C92.7938 195.695 92.7938 196.21 92.7938 196.743C92.8318 197.238 92.8699 197.752 92.908 198.286C92.9461 198.819 92.9842 199.371 93.0223 199.943C93.0985 200.514 93.0604 200.933 92.908 201.2C92.7938 201.429 92.6414 201.543 92.4509 201.543C91.8033 201.543 91.3461 201.086 91.0795 200.171C90.7366 198.952 90.3366 198.019 89.8795 197.371C89.4604 196.724 88.889 196.4 88.1652 196.4H82.7938C82.3748 196.4 82.0509 196.514 81.8224 196.743C81.6319 196.972 81.5367 197.295 81.5367 197.714V208.514C81.5367 209.581 81.7652 210.343 82.2224 210.8C82.6795 211.219 83.3843 211.429 84.3367 211.429H89.4223C90.1842 211.429 90.9271 211.333 91.6509 211.143C92.4128 210.914 93.0604 210.571 93.5938 210.114C94.2414 209.581 94.8318 208.895 95.3652 208.057C95.9366 207.219 96.4318 206.381 96.8509 205.543C97.0033 205.238 97.1556 205.048 97.308 204.971C97.4985 204.895 97.708 204.857 97.9366 204.857C98.1652 204.857 98.3175 204.991 98.3937 205.257C98.4699 205.486 98.508 205.733 98.508 206C98.508 206.686 98.4128 207.429 98.2223 208.229C98.0318 209.029 97.7842 209.886 97.4794 210.8C97.2128 211.676 96.9461 212.59 96.6795 213.543C96.6033 213.81 96.4318 213.981 96.1652 214.057C95.8985 214.171 95.6128 214.229 95.308 214.229C95.1176 214.229 94.3747 214.21 93.0795 214.171C91.7842 214.171 90.1652 214.152 88.2224 214.114C86.3176 214.076 84.3176 214.038 82.2224 214C80.1652 214 78.2795 214 76.5653 214C75.8034 214 74.9272 214.019 73.9367 214.057C72.9462 214.095 71.9558 214.133 70.9653 214.171C69.9748 214.248 69.0986 214.286 68.3367 214.286Z" fill="#011641"/>
<path d="M136.173 214.4C134.65 214.4 133.088 214.362 131.488 214.286C129.926 214.21 128.516 214.133 127.259 214.057C126.002 214.019 125.126 214 124.631 214C123.869 214 122.974 214 121.945 214C120.954 214.038 119.926 214.076 118.859 214.114C117.831 214.152 116.897 214.171 116.059 214.171C115.831 214.171 115.602 214.095 115.374 213.943C115.145 213.79 115.031 213.581 115.031 213.314C115.031 212.971 115.126 212.705 115.316 212.514C115.507 212.286 115.774 212.133 116.116 212.057C117.564 211.752 118.554 211.371 119.088 210.914C119.621 210.457 119.888 209.638 119.888 208.457V182.514C119.888 181.295 119.64 180.438 119.145 179.943C118.65 179.448 117.64 179.029 116.116 178.686C115.774 178.61 115.507 178.476 115.316 178.286C115.126 178.057 115.031 177.772 115.031 177.429C115.031 177.162 115.145 176.953 115.374 176.8C115.602 176.648 115.831 176.572 116.059 176.572C116.897 176.572 117.831 176.591 118.859 176.629C119.926 176.667 120.954 176.724 121.945 176.8C122.974 176.838 123.869 176.857 124.631 176.857C125.202 176.857 125.983 176.838 126.973 176.8C128.002 176.724 129.107 176.667 130.288 176.629C131.507 176.553 132.688 176.495 133.831 176.457C134.973 176.381 135.926 176.343 136.688 176.343C139.354 176.343 141.888 176.8 144.288 177.714C146.688 178.591 148.821 179.848 150.688 181.486C152.554 183.124 154.021 185.086 155.088 187.372C156.154 189.619 156.688 192.114 156.688 194.857C156.688 197.371 156.25 199.81 155.373 202.171C154.497 204.495 153.183 206.571 151.431 208.4C149.716 210.229 147.583 211.695 145.031 212.8C142.478 213.867 139.526 214.4 136.173 214.4ZM135.259 211.257C137.773 211.257 139.831 210.648 141.431 209.429C143.069 208.21 144.269 206.495 145.031 204.286C145.831 202.076 146.231 199.486 146.231 196.514C146.231 194 145.983 191.714 145.488 189.657C145.031 187.6 144.326 185.829 143.373 184.343C142.421 182.857 141.221 181.714 139.773 180.914C138.326 180.076 136.631 179.657 134.688 179.657C133.545 179.657 132.593 179.695 131.831 179.772C131.107 179.848 130.554 180.019 130.173 180.286C129.793 180.514 129.602 180.933 129.602 181.543V206.343C129.602 207.524 129.793 208.476 130.173 209.2C130.593 209.924 131.221 210.457 132.059 210.8C132.897 211.105 133.964 211.257 135.259 211.257Z" fill="#011641"/>
<path d="M191.519 214.8C188.853 214.8 186.319 214.362 183.919 213.486C181.519 212.571 179.386 211.295 177.519 209.657C175.653 207.981 174.186 206 173.119 203.714C172.053 201.391 171.519 198.819 171.519 196C171.519 193.41 171.957 190.933 172.834 188.572C173.71 186.172 175.005 184.038 176.719 182.172C178.472 180.305 180.624 178.819 183.176 177.714C185.729 176.61 188.681 176.057 192.033 176.057C194.7 176.057 197.233 176.514 199.633 177.429C202.033 178.305 204.167 179.581 206.033 181.257C207.9 182.895 209.367 184.876 210.433 187.2C211.5 189.486 212.033 192.038 212.033 194.857C212.033 197.41 211.595 199.886 210.719 202.286C209.843 204.686 208.529 206.819 206.776 208.686C205.062 210.552 202.929 212.038 200.376 213.143C197.824 214.248 194.872 214.8 191.519 214.8ZM192.548 212.114C194.567 212.114 196.243 211.505 197.576 210.286C198.948 209.067 199.976 207.39 200.662 205.257C201.348 203.086 201.691 200.61 201.691 197.829C201.691 195.543 201.481 193.276 201.062 191.029C200.643 188.781 199.995 186.743 199.119 184.914C198.243 183.048 197.119 181.562 195.748 180.457C194.414 179.353 192.795 178.8 190.891 178.8C188.91 178.8 187.233 179.41 185.862 180.629C184.529 181.848 183.519 183.524 182.834 185.657C182.186 187.791 181.862 190.248 181.862 193.029C181.862 195.314 182.072 197.581 182.491 199.829C182.91 202.076 183.538 204.133 184.376 206C185.253 207.829 186.357 209.314 187.691 210.457C189.062 211.562 190.681 212.114 192.548 212.114Z" fill="#011641"/>
<path d="M227.169 214.4C226.75 214.4 226.35 214.324 225.969 214.171C225.626 214.057 225.454 213.81 225.454 213.429C225.454 213.048 225.607 212.8 225.911 212.686C226.254 212.533 226.597 212.4 226.94 212.286C227.702 212.057 228.426 211.752 229.111 211.371C229.835 210.952 230.559 210.4 231.283 209.714C232.045 208.99 232.864 208.057 233.74 206.914L240.654 197.943C241.149 197.295 241.397 196.648 241.397 196C241.397 195.314 241.13 194.61 240.597 193.886L232.369 182.343C232.026 181.81 231.664 181.314 231.283 180.857C230.902 180.362 230.445 179.924 229.911 179.543C229.416 179.162 228.788 178.876 228.026 178.686C227.683 178.572 227.378 178.438 227.111 178.286C226.883 178.133 226.769 177.867 226.769 177.486C226.769 177.181 226.883 176.972 227.111 176.857C227.34 176.705 227.588 176.629 227.854 176.629C229.759 176.629 231.664 176.705 233.569 176.857C235.473 176.972 237.359 177.01 239.226 176.972C240.483 176.972 241.721 176.914 242.94 176.8C244.159 176.648 245.473 176.572 246.883 176.572C247.188 176.572 247.511 176.648 247.854 176.8C248.235 176.953 248.426 177.162 248.426 177.429C248.426 177.772 248.235 178.057 247.854 178.286C247.511 178.476 247.168 178.61 246.826 178.686C245.645 178.953 244.768 179.257 244.197 179.6C243.626 179.905 243.34 180.381 243.34 181.029C243.34 181.486 243.588 182.038 244.083 182.686L249.568 190.172C249.911 190.629 250.235 190.895 250.54 190.972C250.845 191.01 251.187 190.781 251.568 190.286L255.968 184.114C256.502 183.391 256.864 182.781 257.054 182.286C257.245 181.753 257.34 181.295 257.34 180.914C257.34 180.381 257.149 179.943 256.768 179.6C256.387 179.257 255.74 178.953 254.826 178.686C254.445 178.572 254.064 178.419 253.683 178.229C253.302 178.038 253.111 177.772 253.111 177.429C253.111 177.162 253.283 176.972 253.626 176.857C254.007 176.705 254.445 176.629 254.94 176.629C255.778 176.629 256.445 176.648 256.94 176.686C257.435 176.724 257.911 176.762 258.368 176.8C258.864 176.838 259.492 176.857 260.254 176.857C261.359 176.857 262.273 176.8 262.997 176.686C263.759 176.534 264.73 176.457 265.911 176.457C266.33 176.457 266.749 176.534 267.168 176.686C267.587 176.8 267.797 177.048 267.797 177.429C267.797 177.81 267.606 178.076 267.226 178.229C266.845 178.343 266.483 178.457 266.14 178.572C265.34 178.838 264.502 179.257 263.626 179.829C262.749 180.4 262.026 181.048 261.454 181.772L253.34 191.886C252.921 192.381 252.692 192.857 252.654 193.314C252.654 193.772 252.902 194.343 253.397 195.029L263.111 208.743C263.645 209.505 264.235 210.19 264.883 210.8C265.53 211.371 266.178 211.752 266.826 211.943C267.168 212.019 267.587 212.19 268.083 212.457C268.616 212.724 268.883 213.048 268.883 213.429C268.883 213.695 268.749 213.905 268.483 214.057C268.216 214.21 267.873 214.286 267.454 214.286C265.854 214.286 264.387 214.248 263.054 214.171C261.721 214.133 260.464 214.076 259.283 214C258.102 213.924 256.864 213.905 255.568 213.943C254.426 213.943 253.283 213.962 252.14 214C250.997 214.076 249.816 214.114 248.597 214.114C248.292 214.114 247.949 214.038 247.568 213.886C247.226 213.733 247.054 213.524 247.054 213.257C247.054 212.914 247.226 212.648 247.568 212.457C247.949 212.229 248.311 212.076 248.654 212C249.416 211.81 250.178 211.562 250.94 211.257C251.702 210.952 252.083 210.476 252.083 209.829C252.083 209.638 252.045 209.448 251.968 209.257C251.892 209.067 251.778 208.857 251.626 208.629L245.34 199.829C244.845 199.067 244.388 198.629 243.968 198.514C243.588 198.4 243.111 198.781 242.54 199.657L237.683 206.857C237.111 207.695 236.769 208.4 236.654 208.971C236.578 209.505 236.559 209.905 236.597 210.171C236.673 210.667 236.921 211.105 237.34 211.486C237.797 211.829 238.426 212.057 239.226 212.171C239.607 212.21 239.988 212.343 240.368 212.571C240.749 212.8 240.94 213.086 240.94 213.429C240.94 213.695 240.768 213.886 240.426 214C240.083 214.152 239.702 214.229 239.283 214.229C238.026 214.229 236.864 214.19 235.797 214.114C234.73 214.076 233.892 214.057 233.283 214.057C232.178 214.057 231.188 214.114 230.311 214.229C229.435 214.343 228.388 214.4 227.169 214.4Z" fill="#011641"/>
<path d="M285.898 214.171C285.669 214.171 285.441 214.095 285.212 213.943C284.983 213.79 284.869 213.581 284.869 213.314C284.869 212.667 285.231 212.248 285.955 212.057C287.403 211.752 288.393 211.371 288.926 210.914C289.46 210.457 289.726 209.638 289.726 208.457V182.514C289.726 181.295 289.479 180.438 288.983 179.943C288.488 179.448 287.479 179.029 285.955 178.686C285.231 178.495 284.869 178.076 284.869 177.429C284.869 177.162 284.983 176.953 285.212 176.8C285.441 176.648 285.669 176.572 285.898 176.572C286.736 176.572 287.669 176.591 288.698 176.629C289.764 176.667 290.793 176.724 291.783 176.8C292.812 176.838 293.707 176.857 294.469 176.857C295.231 176.857 296.145 176.838 297.212 176.8C298.279 176.762 299.364 176.724 300.469 176.686C301.574 176.648 302.526 176.629 303.326 176.629C303.631 176.629 303.86 176.705 304.012 176.857C304.164 176.972 304.241 177.181 304.241 177.486C304.241 177.867 304.145 178.133 303.955 178.286C303.764 178.438 303.498 178.572 303.155 178.686C301.593 179.143 300.583 179.619 300.126 180.114C299.669 180.61 299.441 181.429 299.441 182.572V208.4C299.441 209.467 299.688 210.248 300.183 210.743C300.679 211.2 301.669 211.638 303.155 212.057C303.498 212.171 303.764 212.305 303.955 212.457C304.145 212.61 304.241 212.876 304.241 213.257C304.241 213.524 304.164 213.733 304.012 213.886C303.86 214.038 303.631 214.114 303.326 214.114C302.526 214.114 301.574 214.095 300.469 214.057C299.364 214.019 298.279 213.981 297.212 213.943C296.145 213.905 295.231 213.886 294.469 213.886C293.707 213.886 292.812 213.905 291.783 213.943C290.793 213.981 289.764 214.019 288.698 214.057C287.669 214.133 286.736 214.171 285.898 214.171Z" fill="#011641"/>
<path d="M321.963 214.286C321.62 214.286 321.353 214.19 321.163 214C320.972 213.81 320.877 213.6 320.877 213.371C320.877 212.8 321.258 212.4 322.02 212.171C323.277 211.79 324.153 211.39 324.648 210.971C325.182 210.552 325.448 209.752 325.448 208.571V182.514C325.448 181.295 325.201 180.438 324.706 179.943C324.248 179.41 323.353 178.991 322.02 178.686C321.563 178.572 321.239 178.4 321.048 178.172C320.896 177.943 320.82 177.714 320.82 177.486C320.82 177.219 320.915 177.01 321.106 176.857C321.334 176.667 321.62 176.572 321.963 176.572C322.801 176.572 323.715 176.591 324.706 176.629C325.696 176.667 326.667 176.724 327.62 176.8C328.572 176.838 329.429 176.857 330.191 176.857C332.325 176.857 334.61 176.838 337.048 176.8C339.486 176.762 341.639 176.724 343.506 176.686C344.725 176.686 345.715 176.61 346.477 176.457C347.277 176.305 347.753 176.229 347.905 176.229C348.21 176.229 348.515 176.324 348.82 176.514C349.163 176.667 349.353 176.972 349.391 177.429C349.544 178.838 349.734 180.229 349.963 181.6C350.229 182.933 350.363 184.114 350.363 185.143C350.363 185.524 350.286 185.81 350.134 186C349.982 186.191 349.81 186.286 349.62 186.286C349.429 186.286 349.22 186.21 348.991 186.057C348.763 185.905 348.572 185.657 348.42 185.314C348.001 184.286 347.62 183.429 347.277 182.743C346.972 182.019 346.61 181.448 346.191 181.029C345.772 180.61 345.239 180.21 344.591 179.829C343.944 179.41 343.086 179.2 342.02 179.2H338.42C337.467 179.2 336.686 179.429 336.077 179.886C335.467 180.343 335.163 180.991 335.163 181.829V192.343C335.163 192.838 335.296 193.2 335.563 193.429C335.829 193.619 336.191 193.714 336.648 193.714H341.506C342.496 193.714 343.201 193.352 343.62 192.629C344.077 191.905 344.477 191.086 344.82 190.172C345.125 189.486 345.525 189.143 346.02 189.143C346.21 189.143 346.382 189.257 346.534 189.486C346.686 189.714 346.744 190.038 346.706 190.457C346.667 190.991 346.61 191.524 346.534 192.057C346.496 192.591 346.458 193.124 346.42 193.657C346.42 194.152 346.42 194.667 346.42 195.2C346.42 195.695 346.42 196.21 346.42 196.743C346.458 197.238 346.496 197.752 346.534 198.286C346.572 198.819 346.61 199.371 346.648 199.943C346.725 200.514 346.686 200.933 346.534 201.2C346.42 201.429 346.267 201.543 346.077 201.543C345.429 201.543 344.972 201.086 344.706 200.171C344.363 198.952 343.963 198.019 343.506 197.371C343.086 196.724 342.515 196.4 341.791 196.4H336.42C336.001 196.4 335.677 196.514 335.448 196.743C335.258 196.972 335.163 197.295 335.163 197.714V208.514C335.163 209.581 335.391 210.343 335.848 210.8C336.306 211.219 337.01 211.429 337.963 211.429H343.048C343.81 211.429 344.553 211.333 345.277 211.143C346.039 210.914 346.686 210.571 347.22 210.114C347.867 209.581 348.458 208.895 348.991 208.057C349.563 207.219 350.058 206.381 350.477 205.543C350.629 205.238 350.782 205.048 350.934 204.971C351.125 204.895 351.334 204.857 351.563 204.857C351.791 204.857 351.944 204.991 352.02 205.257C352.096 205.486 352.134 205.733 352.134 206C352.134 206.686 352.039 207.429 351.848 208.229C351.658 209.029 351.41 209.886 351.105 210.8C350.839 211.676 350.572 212.59 350.305 213.543C350.229 213.81 350.058 213.981 349.791 214.057C349.525 214.171 349.239 214.229 348.934 214.229C348.744 214.229 348.001 214.21 346.706 214.171C345.41 214.171 343.791 214.152 341.848 214.114C339.944 214.076 337.944 214.038 335.848 214C333.791 214 331.906 214 330.191 214C329.429 214 328.553 214.019 327.563 214.057C326.572 214.095 325.582 214.133 324.591 214.171C323.601 214.248 322.725 214.286 321.963 214.286Z" fill="#011641"/>
<path d="M254.662 155.514C245.198 155.514 245.198 141.244 254.662 141.244H266.377L204.357 33.8039L188.766 61.08C188.766 61.08 218.088 111.727 221.053 116.914C224.019 122.101 235.411 126.427 235.411 126.427L235.362 131.174H190.156V126.427C190.156 126.427 200.198 126.349 194.805 116.914C189.412 107.48 175.701 83.4626 175.701 83.4626C175.701 83.4626 162.097 107.47 156.382 116.914C150.666 126.349 160.835 126.427 160.835 126.427V131.184H125.582L125.631 126.427C125.631 126.427 134.567 126.173 139.91 116.914C145.254 107.656 162.567 77.6688 162.567 77.6688L135.056 33.9018L75.3364 141.235H83.9097C95.1646 141.235 95.1646 155.504 83.9097 155.504H39.1346C35.2003 155.504 32 152.304 32 148.379C32 146.412 32.7536 144.611 34.1238 143.261C35.4939 141.91 37.3045 141.215 39.2325 141.215C40.084 141.225 40.9354 141.244 41.7869 141.264C51.1627 141.47 58.5518 141.636 63.8759 132.534C68.28 125.008 114.112 45.5874 120.278 34.8316C123.439 29.3215 123.879 24.1149 121.511 20.161C119.24 16.3735 114.533 14.1225 109.209 14.2693H99.4415C97.5331 14.2693 95.742 13.5255 94.4012 12.1749C92.9332 10.7264 92.1698 8.69076 92.3264 6.60615C92.6005 2.89692 95.7812 0 99.5785 0H156.783C158.799 0 160.698 0.782952 162.127 2.22163C163.546 3.64073 164.319 5.5296 164.319 7.53591C164.319 10.6188 162.361 13.4472 159.455 14.5629C157.82 15.1893 156.597 16.3343 156.108 17.7045C155.608 19.0844 155.853 20.7189 156.812 22.4218C159.171 26.6301 170.455 46.1354 175.613 55.0415L194.453 22.3239C195.275 20.895 195.422 19.2606 194.883 17.7143C194.365 16.2462 193.298 15.111 191.937 14.5727C188.992 13.4276 187.093 10.6677 187.093 7.5457C187.093 3.38627 190.469 0 194.629 0H252.655C254.574 0 256.374 0.743804 257.715 2.10418C259.164 3.55264 259.917 5.55896 259.78 7.6142C259.536 11.343 256.355 14.2693 252.538 14.2693H242.311C237.995 14.1323 234.197 16.3539 231.799 20.3078C229.049 24.8391 228.756 30.6721 231.075 34.8413C236.35 44.3248 282.28 125.282 287.555 132.691C291.881 138.759 295.502 141.244 300.034 141.244H312.267C321.77 141.254 321.751 155.524 312.248 155.514H254.662Z" fill="#011641"/>
</svg>
