<svg width="21" height="22" viewBox="0 0 21 22" fill="none" xmlns="http://www.w3.org/2000/svg">
<path d="M17.8879 1.5H3.11013C1.9442 1.5 0.999023 2.44518 0.999023 3.61111V18.3889C0.999023 19.5548 1.9442 20.5 3.11013 20.5H17.8879C19.0538 20.5 19.999 19.5548 19.999 18.3889V3.61111C19.999 2.44518 19.0538 1.5 17.8879 1.5Z" stroke="#203C7C" stroke-width="2" stroke-linecap="round" stroke-linejoin="round"/>
<path d="M9.72716 13.6618C9.51212 13.9372 9.21406 14.1457 8.83298 14.2874C8.4519 14.4291 8.0191 14.5 7.53458 14.5C7.03645 14.5 6.59548 14.389 6.21168 14.1671C5.82788 13.9452 5.53118 13.6283 5.32158 13.2166C5.11471 12.8021 5.00719 12.3195 4.99902 11.7687V11.3115C4.99902 10.4291 5.21406 9.74064 5.64414 9.24599C6.07422 8.74866 6.67442 8.5 7.44475 8.5C8.1062 8.5 8.63155 8.66043 9.0208 8.98128C9.41005 9.30214 9.64414 9.76471 9.72308 10.369H8.71049C8.59617 9.66578 8.18106 9.31417 7.46517 9.31417C7.00243 9.31417 6.64993 9.47861 6.40767 9.80749C6.16813 10.1337 6.04428 10.6136 6.03611 11.2473V11.6965C6.03611 12.3275 6.17085 12.8182 6.44033 13.1684C6.71253 13.516 7.08953 13.6898 7.57133 13.6898C8.0994 13.6898 8.47504 13.5722 8.69824 13.3369V12.1939H7.47333V11.4238H9.72716V13.6618Z" fill="#203C7C"/>
<path d="M11.9524 14.4198H10.9235V8.58021H11.9524V14.4198Z" fill="#203C7C"/>
<path d="M16.6479 11.9452H14.2552V14.4198H13.2222V8.58021H16.999V9.3984H14.2552V11.135H16.6479V11.9452Z" fill="#203C7C"/>
<path d="M9.72716 13.6618C9.51212 13.9372 9.21406 14.1457 8.83298 14.2874C8.4519 14.4291 8.0191 14.5 7.53458 14.5C7.03645 14.5 6.59548 14.389 6.21168 14.1671C5.82788 13.9452 5.53118 13.6283 5.32158 13.2166C5.11471 12.8021 5.00719 12.3195 4.99902 11.7687V11.3115C4.99902 10.4291 5.21406 9.74064 5.64414 9.24599C6.07422 8.74866 6.67442 8.5 7.44475 8.5C8.1062 8.5 8.63155 8.66043 9.0208 8.98128C9.41005 9.30214 9.64414 9.76471 9.72308 10.369H8.71049C8.59617 9.66578 8.18106 9.31417 7.46517 9.31417C7.00243 9.31417 6.64993 9.47861 6.40767 9.80749C6.16813 10.1337 6.04428 10.6136 6.03611 11.2473V11.6965C6.03611 12.3275 6.17085 12.8182 6.44033 13.1684C6.71253 13.516 7.08953 13.6898 7.57133 13.6898C8.0994 13.6898 8.47504 13.5722 8.69824 13.3369V12.1939H7.47333V11.4238H9.72716V13.6618Z" stroke="#203C7C" stroke-width="0.2"/>
<path d="M11.9524 14.4198H10.9235V8.58021H11.9524V14.4198Z" stroke="#203C7C" stroke-width="0.2"/>
<path d="M16.6479 11.9452H14.2552V14.4198H13.2222V8.58021H16.999V9.3984H14.2552V11.135H16.6479V11.9452Z" stroke="#203C7C" stroke-width="0.2"/>
</svg>
