<svg width="21" height="22" viewBox="0 0 21 22" fill="none" xmlns="http://www.w3.org/2000/svg">
<path d="M17.888 1.5H3.111C1.94513 1.5 1 2.44513 1 3.611V18.388C1 19.5538 1.94513 20.499 3.111 20.499H17.888C19.0538 20.499 19.999 19.5538 19.999 18.388V3.611C19.999 2.44513 19.0538 1.5 17.888 1.5Z" stroke="#203C7C" stroke-width="2" stroke-linecap="round" stroke-linejoin="round"/>
<path d="M6.8059 8.88732C7.68031 8.88732 8.38915 8.17848 8.38915 7.30407C8.38915 6.42967 7.68031 5.72083 6.8059 5.72083C5.9315 5.72083 5.22266 6.42967 5.22266 7.30407C5.22266 8.17848 5.9315 8.88732 6.8059 8.88732Z" stroke="#203C7C" stroke-width="2" stroke-linecap="round" stroke-linejoin="round"/>
<path d="M19.9983 14.1667L14.7208 8.88916L3.11035 20.4996" stroke="#203C7C" stroke-width="2" stroke-linecap="round" stroke-linejoin="round"/>
</svg>
