<svg width="24" height="24" viewBox="0 0 24 24" fill="none" xmlns="http://www.w3.org/2000/svg">
<mask id="mask0_7_1858" style="mask-type:alpha" maskUnits="userSpaceOnUse" x="0" y="0" width="24" height="24">
<rect x="0.302063" width="23.6979" height="24" fill="#D9D9D9"/>
</mask>
<g mask="url(#mask0_7_1858)">
<path d="M6.22654 14C5.68346 14 5.21855 13.8042 4.83182 13.4125C4.44508 13.0208 4.25171 12.55 4.25171 12C4.25171 11.45 4.44508 10.9792 4.83182 10.5875C5.21855 10.1958 5.68346 10 6.22654 10C6.76962 10 7.23452 10.1958 7.62126 10.5875C8.008 10.9792 8.20137 11.45 8.20137 12C8.20137 12.55 8.008 13.0208 7.62126 13.4125C7.23452 13.8042 6.76962 14 6.22654 14ZM12.151 14C11.6079 14 11.143 13.8042 10.7563 13.4125C10.3696 13.0208 10.1762 12.55 10.1762 12C10.1762 11.45 10.3696 10.9792 10.7563 10.5875C11.143 10.1958 11.6079 10 12.151 10C12.6941 10 13.159 10.1958 13.5457 10.5875C13.9325 10.9792 14.1259 11.45 14.1259 12C14.1259 12.55 13.9325 13.0208 13.5457 13.4125C13.159 13.8042 12.6941 14 12.151 14ZM18.0755 14C17.5324 14 17.0675 13.8042 16.6808 13.4125C16.2941 13.0208 16.1007 12.55 16.1007 12C16.1007 11.45 16.2941 10.9792 16.6808 10.5875C17.0675 10.1958 17.5324 10 18.0755 10C18.6186 10 19.0835 10.1958 19.4702 10.5875C19.857 10.9792 20.0503 11.45 20.0503 12C20.0503 12.55 19.857 13.0208 19.4702 13.4125C19.0835 13.8042 18.6186 14 18.0755 14Z" fill="#203C7C"/>
</g>
</svg>
