<svg width="24" height="24" viewBox="0 0 24 24" fill="none" xmlns="http://www.w3.org/2000/svg">
<mask id="mask0_7_1875" style="mask-type:alpha" maskUnits="userSpaceOnUse" x="0" y="0" width="24" height="24">
<rect width="24" height="24" fill="#D9D9D9"/>
</mask>
<g mask="url(#mask0_7_1875)">
<path d="M8 22.5V16.975C6.31667 16.8417 4.89583 16.1583 3.7375 14.925C2.57917 13.6917 2 12.2167 2 10.5C2 8.68333 2.62917 7.14583 3.8875 5.8875C5.14583 4.62917 6.68333 4 8.5 4H9.175L7.6 2.4L9 1L13 5L9 9L7.6 7.6L9.175 6H8.5C7.25 6 6.1875 6.4375 5.3125 7.3125C4.4375 8.1875 4 9.25 4 10.5C4 11.75 4.4375 12.8125 5.3125 13.6875C6.1875 14.5625 7.25 15 8.5 15H10V17.675L12.675 15H15.5C16.75 15 17.8125 14.5625 18.6875 13.6875C19.5625 12.8125 20 11.75 20 10.5C20 9.25 19.5625 8.1875 18.6875 7.3125C17.8125 6.4375 16.75 6 15.5 6H15V4H15.5C17.3167 4 18.8542 4.62917 20.1125 5.8875C21.3708 7.14583 22 8.68333 22 10.5C22 12.3167 21.3708 13.8542 20.1125 15.1125C18.8542 16.3708 17.3167 17 15.5 17H13.5L8 22.5Z" fill="#203C7C"/>
</g>
</svg>
